<?xml version="1.0" encoding="utf-8"?>
<!-- Generator: Adobe Illustrator 24.0.1, SVG Export Plug-In . SVG Version: 6.00 Build 0)  -->
<svg version="1.1" id="Layer_1" xmlns="http://www.w3.org/2000/svg" xmlns:xlink="http://www.w3.org/1999/xlink" x="0px" y="0px"
	 viewBox="0 0 800 800" style="enable-background:new 0 0 800 800;" xml:space="preserve">
<style type="text/css">
	.st0{fill-rule:evenodd;clip-rule:evenodd;}
</style>
<path class="st0" d="M197.6,193c2.6,0.9,8.6,12.9,8.6,20.1c0,8.1,20.8,43.5,24.9,50.6l5.3-3.1c-11.8-20-24.1-43.2-24.1-47.4
	c0-8.1-6.2-23.7-12.8-25.9c0.1,0,0.2,0.1,0.2,0.1c-2.3-1.5-9.3-15.4-10.4-26c-0.4-3.4,0.1-5.2,0.7-5.8c2.4-2.4,8.7-2.6,14.3-2.8
	c6.3-0.2,11.8-0.4,14.8-3.3c7.8-7.8,10.2-5.4,11-4.6c3.6,3.6,8.3,17.9,8.3,25.4h6.1c0-6-2.7-17-6.5-24.3c4.6,0.4,10.9,1.7,14.9,6.4
	c2.7,3.3,6.2,8.5,9.8,14.1c6.5,9.9,13.1,20.1,18.5,23.3c7.1,4.3,23.2,27.9,24.6,36.2l6-1c-1.6-9.9-18.9-35.2-27.5-40.4
	c-4.2-2.5-11.1-13-16.6-21.4c-3.7-5.7-7.3-11.1-10.2-14.7c-7.8-9.4-21.8-9-24.9-8.8c-2.7-1.8-5.8-2.3-9.3-0.9
	c-2.6,1.1-5.4,3.2-8.6,6.4c-1.3,1.2-6.6,1.4-10.5,1.5c5.2-3.9,12.3-7.8,16.8-7.1l1-6c-10.3-1.7-24,10.1-25.5,11.4l1.8,2
	c-5,0.4-9.6,1.3-12.6,4.3c-2.8,2.8-3.3,8.3-1.4,16.3C186.2,175.7,192.3,191.3,197.6,193L197.6,193z"/>
<path class="st0" d="M252.8,176.4l-1.2,6c5.2,1,12.9,4.2,12.9,7.7h6.1C270.6,180.2,254.6,176.8,252.8,176.4L252.8,176.4z
	 M331.8,270.9c0,4.7,0,9.9,4.8,12.3l2.7-5.5c-1.3-0.6-1.4-3.1-1.4-6.8c0-4.5,0-10.1-4-14c-5.5-5.5-8.4-15.4-8.4-15.5l-5.9,1.7
	c0.1,0.5,3.4,11.6,10,18.2C331.8,263.4,331.8,267.2,331.8,270.9z M344.1,155.8c-1.6,7.8,5.3,115.6,6.1,127.9l6.1-0.4
	c-3.1-47.8-7.2-120.9-6.2-126.3c0.6-2.9-0.4-7.4-1.6-13.1c-2.4-11.4-5.7-27,3.2-32.4l-3.2-5.3c-12.6,7.6-8.7,26.4-6,38.9
	C343.5,149.6,344.5,154.2,344.1,155.8L344.1,155.8z"/>
<path class="st0" d="M347.1,92.1c0,6.3,6.7,14.9,9.1,17.9l-1.5,31l6.1,0.3l1.5-32.2l0.1-1.2l-0.8-0.9c-3.5-4.1-8.5-11.4-8.5-14.9
	c0-1.9-0.5-4.5-1.2-7.7c-1.5-7.1-3.7-17.8,1-20.2c3.2-1.6,6.2-4,9.1-6.3c5.7-4.6,11-8.9,17.9-7.2c14.1,3.5,26.8,9.5,28.8,12.5
	c2.8,4.2,7.1,17.5,7.1,25.9c0,4.7,1.1,10.6,2.2,16.9c1.2,6.4,2.4,13.1,2.4,18.4v55.1h6.1v-55.1c0-5.8-1.3-12.8-2.5-19.5
	c-1.1-6-2.1-11.6-2.1-15.8c0-9.9-4.9-24.3-8.2-29.3c-4.1-6.1-21.6-12.4-32.4-15.1c-9.8-2.5-17,3.3-23.3,8.4c-2.7,2.2-5.3,4.3-8,5.6
	c-8.9,4.4-6.1,18-4.3,26.9C346.6,88.3,347.1,90.8,347.1,92.1L347.1,92.1z"/>
<path class="st0" d="M390,165.4l-18.8-7.2l-2.2,5.7l19.9,7.7l1.1,0.4l1.1-0.4l12.2-4.6l-2.1-5.7L390,165.4z M364,193.2h-6.1v30.6
	h6.1V193.2z M374.4,208.7l-2.4,5.6c0.5,0.2,12.3,5.2,21.2-0.2l-3.2-5.3C383.8,212.6,374.5,208.8,374.4,208.7z M416,168.8l-6.1-0.3
	l-1.5,30.6l6.1,0.3L416,168.8z M411.1,234.7l-3.1-6.1l-5.5,2.7l3.1,6.1L411.1,234.7z M436.6,251.6c-0.3,2.3-0.7,4.3-1.1,6.5
	c-2.9-5.7-5.7-18.1-5.7-45c0-11.3-4.7-20.9-4.9-21.3l-5.5,2.7c0.1,0.1,4.3,8.7,4.3,18.5c0,20.5,1.3,48.4,12.3,54.7l3.6,2.1l0.9-4.1
	c0.9-4.1,1.6-8.8,2.2-13.4c1.2-8.9,2.9-21.2,6.7-22.7l-1.6-3.9c2,1.9,4,3.5,6.1,4.9l-4.3,2.9l-2.3,1.6l1.3,2.5l9.2,16.9l5.4-2.9
	l-7.8-14.4l2.3-1.5l-2.9-4.4c10.2,6.3,20.7,6.4,27.3,6.4c10.6,0,22.5-10.1,25.9-22.1c3-10.5,7.5-22.6,7.6-22.7l-5.7-2.2
	c-0.1,0.1-4.7,12.5-7.7,23.2c-2.6,9.3-12.2,17.7-20,17.7c-9.1,0-24.4,0-35.7-17c-8.6-12.9-7.4-15.1-4.4-20.2c1-1.7,2.1-3.5,3.1-6
	l0.5-1.1c4-9.2,14.4-33.8,24.3-33.8c3.3,0,6.5-0.3,9.7-0.6c9.2-0.9,15-1.2,18.4,3.8c2.8,4.2,7.9,8.2,12.9,12
	c4.9,3.8,11.7,9.1,11.2,11.7c-0.5,2.6-1.7,6.1-3,9.7c-2.2,6.4-4.8,13.8-4.8,20c0,7.3-1,21.4-1.4,26.7l-9.4,2.3
	c-2.2-0.5-7.8-1.6-11.3,1c-1.1,0.9-2.5,2.5-2.5,5.2h6.1c0-0.2,0-0.3,0-0.3c0.5-0.6,3.8-0.6,6.8,0.2l0.8,0.2l0.8-0.2l12.2-3.1
	l2.2-0.5l0.2-2.2c0.1-0.8,1.5-20.1,1.5-29.3c0-5.3,2.3-12,4.4-18c1.3-3.8,2.6-7.4,3.2-10.5c1.3-6.3-5.9-11.9-13.4-17.7
	c-4.6-3.5-9.3-7.2-11.6-10.6c-5.6-8.3-15-7.4-24.1-6.5c-3,0.3-6.1,0.6-9.1,0.6c-13.9,0-24.3,24.4-29.9,37.5l-0.5,1.1
	c-0.9,2.1-1.8,3.7-2.8,5.3c-4.1,7-5.7,11.3,4.6,26.7c1.6,2.4,3.4,4.6,5.4,6.7C439.9,228,438.2,239.3,436.6,251.6L436.6,251.6z"/>
<path class="st0" d="M468,165.1c-2.3,0.2-4.4,0.5-6,0.5c-2.4,0-4.5,1-6,2.9c-6.1,7.4-2.7,27.1-1.6,32.9l1.7,8.3l4-7.4
	c7.7-14,35.5-0.4,35.8-0.3l4.9,2.5l-0.5-5.5c-0.1-0.7-1.6-17.5-6.5-27.1C489.3,162.9,477,164.2,468,165.1L468,165.1z M459.4,193.9
	c-1.4-10.2-1-18.6,1.3-21.4c0.5-0.6,0.8-0.7,1.3-0.7c1.9,0,4.2-0.2,6.6-0.5c7.2-0.8,17.1-1.8,19.7,3.4c2.8,5.5,4.4,14.2,5.2,19.7
	C485.3,191.2,469.2,186.4,459.4,193.9L459.4,193.9z M520.1,256.4l-6.1-0.8c-0.2,1.3-4.1,31.6,11,47.6c6.7,7.1,15.9,10.3,27.5,9.5
	l-0.4-6.1c-9.6,0.7-17.2-1.8-22.5-7.5C516.5,285.1,520.1,256.7,520.1,256.4L520.1,256.4z M507.9,301.9h-27.6v6.1h27.6V301.9z
	 M484.3,335.3l-28.8-37.9l-7.5-24l-5.8,1.8l4.7,15.1c-10.6-5.8-26.4-9.3-28.7-9.8l-1.3,6c10.8,2.3,29.4,8.1,33.3,14l0.8-0.4
	l-0.7,0.5l29.1,38.3L484.3,335.3L484.3,335.3z M371.2,303.4l-5.3,3.1c3,5.1,30.1,50.1,44.5,54.9l1.9-5.8
	C403.1,352.6,382.7,322.7,371.2,303.4L371.2,303.4z M434.2,377.9c11,7.6,22.4,18.5,21.7,23l6,1c1.8-10.6-19.9-26.1-24.3-29.1
	L434.2,377.9z M240.5,251.6l24.5,33.7l4.9-3.6L245.5,248L240.5,251.6L240.5,251.6z M281.9,294.9l10.7-10.7l-4.3-4.3l-10.7,10.7
	L281.9,294.9z M111.7,591.3C81,587.7,60,580.9,54.1,572.7c-5.2-7.3-2-24.4,0.4-36.8c0.7-3.7,1.4-7.2,1.7-10c0.3-2.4,2.2-4.5,4.7-6.4
	c4.8,1.2,40.7,9.5,67.8-14.7l-2.7-3c3.4,0.4,6.9,0.8,10.6,1.3c9.5,1.2,19.4,2.5,29.9,2.5c20.5,0,27-6.7,41.4-21.3
	c6.2-6.3,13.9-14.1,24.9-23.8c27.5-24.1,28.5-43.2,29.4-58.6c0.3-5.6,0.6-10.4,2.1-14.7c4.4-12.2,2.8-26.4,1.4-38.9
	c-0.6-5.7-1.2-11-1.2-15.7c0-8.7-1.9-13-3.6-16.8c-1.4-3.1-2.5-5.7-2.5-10.8c0-3.8-1.3-9.2-3.1-14.7c2.4,2.2,4.8,4.3,7.3,6.3
	l3.9-4.7c-6.7-5.6-14-12.4-17.2-16.2c-1.4-2.6-2.6-4.4-3.5-4.8l-1.8-0.8c0,0-1.5,1.3-1.5,1.3c-1,0.9-1.3,2.2-0.7,3.8
	c0.2,0.7,1.1,1.7,1.8,2.6c2.8,5.3,8.8,18.9,8.8,27c0,6.4,1.6,9.9,3.1,13.3c1.6,3.5,3.1,6.8,3.1,14.3c0,5,0.6,10.5,1.3,16.4
	c1.3,11.9,2.8,25.3-1.1,36.2c-1.9,5.1-2.2,10.6-2.5,16.4c-0.8,14.2-1.7,31.9-27.3,54.3c-11.2,9.8-19,17.8-25.3,24.1
	c-13.9,14.2-19.1,19.5-37,19.5c-10.1,0-19.8-1.3-29.1-2.5c-15.6-2-30.3-3.9-42.5,1.2c-4.2,1.8-8.8,3.4-13.2,5
	c-15.5,5.5-30.1,10.7-31.5,22c-0.2,1.5-0.6,3.6-1,5.6l-1.2-1.2c-0.6,0.6-15.8,16-12.7,29c1.2,5.1,5.4,8.8,11.4,11.5
	c0.6,2.3,1.2,4.6,2.5,6.4c9,12.5,38.6,18.4,61.9,21.2c26,3.1,42.8,1.6,43.5,1.5l-0.6-6.1C153.7,592.9,137,594.3,111.7,591.3z
	 M83.6,508.9c4.5-1.6,9.1-3.2,13.5-5.1c7.4-3.1,16-3.1,25.6-2.3C104,516.8,80.7,516.3,69,514.7C73.5,512.6,78.5,510.7,83.6,508.9
	L83.6,508.9z M41.1,557c-1.3-5.5,2.7-12.5,6.5-17.7c-1.4,7.8-2.5,15.9-2.1,23.2C43.3,561,41.6,559.2,41.1,557z M203.3,587.9
	c8.2-10,21.2-10.4,21.3-10.4v-6.1c-0.7,0-17,0.2-27,13.5c-0.9,1.1-2,2.1-3.2,2.8c-12.6-0.1-23.8,0.3-28.2,0.5l-0.8,6
	c0.9,0.3,18.2,5.4,30.1-0.3c20.1,0.2,39.7,1.7,43.7,5.7c9.8,9.8,37.4,13,38.6,13.1l0.7-6.1c-7.4-0.8-28-4.5-34.9-11.4
	C238.6,590.2,220.8,588.4,203.3,587.9L203.3,587.9z"/>
<path class="st0" d="M242.4,454.4l-6.1,6.1l-1,1l0.2,1.5l1.4,12.3l-28.1,28l4.3,4.3l29.1-29.1l1-1l-0.2-1.5l-1.4-12.3l5.1-5.1
	L242.4,454.4z M333.3,334.5l-6.1-0.9c-4.1,28.9-23.6,52.3-40.1,67.5c1.5-12,3.9-32.7,4.9-50c1.6-26.8-13.7-48.5-14.3-49.4l-5,3.6
	c0.1,0.2,14.7,20.9,13.2,45.5c-1.3,21.5-4.6,48.3-5.7,56.7c-9.7,8.1-17.1,12.7-17.3,12.9l0.3-0.2l2.9,5.4c0.9-0.5,9.2-5.7,19.6-14.5
	l0.3,0c0,0,0-0.2,0-0.3C303.9,395.4,328.4,368.8,333.3,334.5L333.3,334.5z M334.4,348.6c4.4,3.8,13.8,8,24.7,13
	c16.9,7.7,37.9,17.2,46.9,28l4.7-3.9c-9.9-11.9-31.7-21.8-49.1-29.7c-10-4.5-19.5-8.8-23.2-12L334.4,348.6z M471.1,477.5
	c-9.4-56.3-33.2-64.8-34.2-65.2l-1.9,5.8l0,0c0.2,0.1,21.4,8.3,30.1,60.4L471.1,477.5L471.1,477.5z M530.6,432.3l-53.6-23l-2.4,5.6
	l53.6,23L530.6,432.3L530.6,432.3z M550.2,440.9L550.2,440.9c-0.1-0.1-9.1-12.2-15-24c-6.5-13-13.3-16.6-21.5-19.8
	c-4.5-1.8-7.4-7.7-10.2-13.4c-1.1-2.3-2.3-4.6-3.6-6.8l-5.3,3.1c1.2,1.9,2.2,4.1,3.3,6.4c3.3,6.7,6.8,13.7,13.5,16.4
	c7.4,3,12.7,5.8,18.3,16.9c6.2,12.4,15.2,24.5,15.6,25L550.2,440.9L550.2,440.9z M542.9,373.9l0.6,6.1h0c0.6,0,14.8-1,21.4,15
	l5.7-2.3C562,372.4,543,373.9,542.9,373.9L542.9,373.9z"/>
<path class="st0" d="M653.2,281l-2.9-1.6c-11.6-6.7-46.2,6-50.1,7.4l-0.3,0.1l-0.3,0.2L569,307l3.3,5.1l30.3-19.7
	c13.7-5.1,37.7-11.7,44.6-7.8l3,1.7c9.3,5.2,37.6,21.1,35.4,30.1c-0.5,1.9-0.9,3.9-1.4,5.9c-2.7,12.1-4.9,20-11.4,21
	c-10.2,1.5-24.3,0-31.1-6.8c-5.9-5.9-14.8-25.6-17.7-32.7l-5.7,2.3c0.5,1.1,11,26.7,19,34.7c2.6,2.6,6,4.3,9.7,5.8l-6-0.6
	c-0.2,1.7-0.6,2.8-1.4,3.3c-2.2,1.5-7.8-0.2-11.5-1.4c-4.4-1.3-7.6-2.3-9.9-0.6c-1.1,0.8-1.7,2.1-1.7,3.6c0,2.7-6.8,10.7-13.5,16.9
	c-5.9,0.2-48-0.5-58.2-40.2c2.8,1.5,5.3,3,7.6,4.4c5.5,3.4,9.8,6.1,14.4,5c3-0.8,5.6-3.2,8-7.5l-5.3-3c-1.5,2.7-2.9,4.2-4.2,4.6
	c-2,0.5-5.4-1.6-9.6-4.2c-3.8-2.4-8.5-5.3-14.5-7.8l-5-2.1l0.8,5.4c6.8,46.6,51.1,51.2,63.9,51.6c-1.2,9.9-5.4,41.2-11.7,58.7
	c-8,22.5-10.9,44.3-10.9,56.2h6.1c0-11.3,2.8-32.3,10.5-54.1c7.2-20.2,11.6-56.6,12.3-62.3c4.1-3.7,13.3-12.9,14.8-19.6
	c1.1,0.2,2.8,0.7,4.3,1.1c5.4,1.6,12,3.7,16.7,0.6c2.4-1.6,3.8-4.2,4.1-7.8c8.2,3.1,18.2,3.9,26.5,2.7c11.2-1.6,14-14.4,16.5-25.7
	c0.4-1.9,0.9-3.9,1.3-5.7C694.5,306.1,674.9,293.2,653.2,281L653.2,281z"/>
<path class="st0" d="M621.7,295.7c-6.2-3.3-24.1,7.6-34.3,14.4l3.4,5.1c12.5-8.3,25.4-14.7,28.1-14c-0.3-0.1-0.6-0.5-0.7-0.8h6.1
	C624.3,298.3,623.3,296.6,621.7,295.7L621.7,295.7z M555,561.4c-0.4,0.3-41,32.8-94.1,25.4l-0.8,6.1c55.8,7.7,97.1-25.3,98.8-26.7
	L555,561.4L555,561.4z M431.3,587.2c-13.9,8.3-31.2,15.3-34.8,12.5c-5.8-4.6-11-0.1-15.2,3.6c-4.1,3.5-8.3,7.1-13.9,6.5
	c-13.9-1.5-59.8,1.4-61.8,1.5l0.4,6.1c0.5,0,47.4-3,60.7-1.5c8.3,0.9,14.3-4.2,18.6-8c4.7-4,5.9-4.6,7.4-3.4
	c8.6,6.9,34.2-7.4,41.8-12L431.3,587.2L431.3,587.2z M295.8,511.5l-52.3-33.7h77.6c12.3,0,22.5,13.3,22.5,28.8
	c0,15.1-9.7,27.1-21.4,27.8c14.3,0.5,24.8,14.5,24.8,30.9c0,16.8-12.3,30.6-25.8,30.6h-77.8v-73.5l52.2,33.6v-5.3l-52.2-34.9v-5.6
	l52.2,33.6v-6.1L243.5,503v-5.6l52.3,33.1V525l-52.3-33.9v-5.8l52.3,32.3V511.5L295.8,511.5z"/>
<path class="st0" d="M386.8,595.4v-41.2l30.9,17v-5.9l-57.5-33.1v-6.8l57.5,33.4v-6.8l-57.5-33.7v-6.6l57.5,33.1v-6.3l-57.5-32.8
	v-6.6l57.5,33.3v-6.4l-57.5-32.8v-6.8l57.7,33.4l-0.2-7.1l-57.5-32.4v-6.8l57.1,32.4l53.7-32.8v59.1l-29.9,15.3v47.6H386.8z
	 M598,482.5V477H487.3v5.4H598z M598,494.2v-6.1H487.3v6.1L598,494.2L598,494.2z M598,504.7V499H487.3v5.8H598z M487.3,515.9H598
	v-5.8H487.3v17.6h28.3v68.1h54.2v-68.1H598v-6.1H487.4v6.1L487.3,515.9L487.3,515.9L487.3,515.9z M611.7,590.4v5.6h102.2v-5.6H611.7
	z M611.7,477.8v72.9h102.2v-4.9h-18.1v-24.7h-33.6v-6.6h51.7v-36.7H611.7z M611.7,557v5.1h102.2v-4.9L611.7,557z M611.7,567.6v6.4
	h102v-6.4H611.7v16.9h102.2v-4.9H611.7V567.6z M267.5,652.6h-1.4v-15.8c0-4.2,0.2-6,5.1-6c7.8,0,12.1,2.6,12.1,10.1
	C283.2,648.6,279.5,652.6,267.5,652.6L267.5,652.6z M290.5,669.2l-4-7.9c-1.2-2.4-2.4-5-4.7-6.5c7.1-1.3,14.2-5.1,14.2-13.2
	c0-7.8-6.7-13.7-17.6-13.7h-31.6v2.5c5.3,0,7.1,1.6,7.1,6.7v35.4c0,5.1-1.8,6.7-7.1,6.7v2.5h26.3v-2.5c-5.3,0-7.1-1.6-7.1-6.7V656
	c3.1,0,5.9,0.8,10.3,10.3l4.3,9.2c1,2.1,1.9,4.3,3.2,6.2H302v-2.5C295.7,678.8,293.1,674.3,290.5,669.2L290.5,669.2z M317.6,679.2
	v2.4h44.3l5.5-13.7l-2-1c-5.7,6.7-13.9,11.8-23,11.8c-5.2,0-5.7-2.9-5.7-7.1v-15.5h1.6c7.2,0,11,1.7,12.9,9.1h2.9V644h-2.9
	c-2.5,7.4-5.7,8.6-13.1,8.6h-1.5v-14.3c0-5.4,0-7.6,6.5-7.6c8.4,0,16,5.4,20.9,11.8l2.3-1l-4.6-13.7h-44.3v2.5
	c5.3,0,7.1,1.6,7.1,6.7v35.4C324.8,677.6,322.9,679.2,317.6,679.2z M432.1,644.1c-3.2-7.1-9.3-14.7-17.7-14.7
	c-11.2,0-13.7,14.2-13.7,22.8c0,17.8,8.8,25.1,17,25.1c7.3,0,11.9-5.1,15.7-10.5l1.9,1.4c-5,8.9-11.9,14.8-22.6,14.8
	c-14.6,0-24.9-12.2-24.9-26.3c0-15.3,10.2-30.1,25.4-30.1c2.7,0,4.8,0.6,6.6,1.2c1.8,0.6,3.4,1.2,4.8,1.2c1.9,0,3.7-0.9,5.4-1.7
	l0.8-0.4l4.4,16.3L432.1,644.1L432.1,644.1z M469.6,654.7c0-17.8,5.6-25.3,14-25.3c7.9,0,13.6,6.4,13.6,25.4
	c0,10-1.1,25.4-14.5,25.4C474.8,680.1,469.6,673.2,469.6,654.7z M456.8,655.4c0,16.2,10.3,27.6,26.3,27.6
	c16.9,0,26.9-13.9,26.9-28.7c0-16.3-10.3-27.7-26.8-27.7C466.8,626.5,456.8,639.7,456.8,655.4L456.8,655.4z M567.4,640.8
	c0-7.4-4.3-10.1-12.1-10.1c-4.8,0-5.1,1.8-5.1,6v15.8h1.4C563.7,652.6,567.4,648.6,567.4,640.8z M586.2,679.2v2.5H568
	c-1.2-1.9-2.2-4.1-3.1-6.2l-4.3-9.2c-4.5-9.5-7.2-10.3-10.3-10.3v16.4c0,5.1,1.8,6.7,7.1,6.7v2.5H531v-2.5c5.3,0,7.1-1.6,7.1-6.7
	v-35.4c0-5.1-1.8-6.7-7.1-6.7v-2.5h31.6c10.9,0,17.6,5.9,17.6,13.7c0,8.1-7.2,11.9-14.2,13.2c2.3,1.5,3.5,4.1,4.7,6.5l4,7.9
	C577.2,674.3,579.9,678.8,586.2,679.2L586.2,679.2z M627.7,678.8c9.2,0,16-5.1,16-25.3c0-18.1-6.8-22.7-16.8-22.7
	c-5.6,0-5.6,2.2-5.6,6.8v34.1C621.2,677.1,621.2,678.8,627.7,678.8L627.7,678.8z M609.2,672.5v-35.4c0-5.1-1.8-6.8-7.1-6.8v-2.5
	h25.6c4.5,0,8.6,0.5,12.4,2c9.5,3.7,16.4,12.5,16.4,25.5c0,12-7.1,20.9-16,24.4c-3.9,1.6-8.1,1.9-12.8,1.9H602v-2.5
	C607.3,679.2,609.2,677.6,609.2,672.5z M714,642.9c-3.6-5.9-10.9-13.5-18.3-13.5c-5.1,0-9.2,2.7-9.2,8c0,6,6.3,7.6,11,9.1l4.3,1.4
	c9,2.9,17.8,7.1,17.8,18c0,10.1-8.4,17.1-18,17.1c-3.2,0-6.2-0.7-9.3-1.6c-1.4-0.4-2.3-0.8-3.7-0.8c-1.2,0-1.9,0.2-6.5,2.4l-4.8-17
	l2.9-1c4.3,7,11.5,15.2,20.4,15.2c5.3,0,10.7-3.8,10.7-9.4c0-6-5.9-7.9-10.6-9.3c-9.8-3.2-22-6.8-22-19.3c0-9.3,7.4-15.5,16.5-15.5
	c3,0,5.3,0.5,8.1,1.5c1,0.4,2,0.7,3.1,0.7c1.8,0,4.3-1.5,5.6-2.7l4.8,15.9L714,642.9L714,642.9z"/>
</svg>
