<?xml version="1.0" encoding="utf-8"?>
<!-- Generator: Adobe Illustrator 24.0.1, SVG Export Plug-In . SVG Version: 6.00 Build 0)  -->
<svg version="1.1" id="Layer_1" xmlns="http://www.w3.org/2000/svg" xmlns:xlink="http://www.w3.org/1999/xlink" x="0px" y="0px"
	 viewBox="0 0 800 800" style="enable-background:new 0 0 800 800;" xml:space="preserve">
<style type="text/css">
	.st0{fill-rule:evenodd;clip-rule:evenodd;fill:#CC2229;}
	.st1{fill:none;stroke:#FFFFFF;stroke-width:0.8965;stroke-miterlimit:10.8448;}
	.st2{fill-rule:evenodd;clip-rule:evenodd;fill:#33A457;}
</style>
<path class="st0" d="M607.8,351.3c-2.4,0-9,0.7-12.9,1.4c-0.7,2.1-10.8,6.6-8.4,19.1c1.7,7.7,5.6,13.2,3.8,14.6
	c-4.9,2.8-11.8-2.1-18.1-4.5c-6.3-3.1-16-7.3-22.3,0.7c-5.6,7.7,13.6,6.6,29.9,15.3c12.2,6.3,20.5,4.9,40,7
	c19.5,1.4,20.5-7,23.7-6.6c2.8,0.7,1.8,8.4,10.8,11.1c4.2,1,13.6-4.2,15.3-3.5c2.8,0.3,2.8,5.9,9.4,8.7c7.3,2.1,9.4-2.1,11.8-3.1
	c2.1-1,2.4,4.2,6.6,5.2c4.2,0.7,10.4,0.3,13.6,0.7c2.4,1,0,4.2,7,5.2c6.3,1,8.4-2.4,11.5-1.4c2.4,1,5.6,8,18.8,7
	c8.4-0.7,6.3-5.9,4.2-9.7c-2.4-3.8-20.5-7-49.8-17.4c-49.4-17.1-62.7-12.9-73.1-33.1c-4.2-8.4-6.6-12.9-7.3-15.7
	C619.6,351.6,614.4,352,607.8,351.3L607.8,351.3z"/>
<path class="st1" d="M774.2,407.3c-2.1-1.4-9.1,5.2-11.8,4.2c-3.1-1-5.6-5.2-8-6.3c-3.1-1-4.9,0.7-8,0c-2.4-0.3-0.7-4.2-2.8-5.2
	c-2.8-1-4.2,1.7-7.3,0.7c-2.4-0.7-4.2-5.2-6.3-6.3c-2.4-0.7-3.1,2.4-5.9,1.4c-3.8-1.4-4.9-4.2-7.3-5.2c-2.1-1.4-6.6,2.8-9.7,1
	c-3.1-1.4-3.1-12.2-5.2-13.2c-2.4-1-10.1,7.7-13.2,5.6c-2.8-1.4-1.7-9.4-4.2-10.8c-2.1-1.4-11.5,6.6-13.9,5.6
	c-2.1-1-2.4-5.2-5.6-5.6c-2.8-0.3-7.7,3.5-10.8,2.4c-6.3-2.4-13.9-1.4-23.3-23.7c-1-2.8-3.1-4.5-5.2-3.5c-5.6,2.1-3.5,4.2,4.2,19.5
	c10.4,20.2,23.7,16,73.1,33.1c29.2,10.5,47.3,13.6,49.8,17.4c2.1,3.8,4.2,9-4.2,9.7c-13.2,1-16.4-5.9-18.8-7
	c-3.1-1-5.2,2.4-11.5,1.4c-7-1-4.5-4.2-7-5.2c-3.1-0.3-9.4,0-13.6-0.7c-4.2-1-4.5-6.3-6.6-5.2c-2.4,1-4.5,5.2-11.8,3.1
	c-6.6-2.8-6.6-8.4-9.4-8.7c-1.7-0.7-11.1,4.5-15.3,3.5c-9-2.8-8-10.4-10.8-11.1c-3.1-0.3-4.2,8-23.7,6.6c-19.5-2.1-27.8-0.7-40-7
	c-16.4-8.7-35.5-7.7-29.9-15.3c6.3-8,16-3.8,22.3-0.7c6.3,2.4,13.2,7.3,18.1,4.5c1.7-1.4-2.1-7-3.8-14.6
	c-2.4-13.6,9.4-17.8,8.4-19.8c-1.7-2.4-8.4-5.9-24.4-3.5c-10.8,1.7-31.7,18.1-36.9,20.5c-5.2,3.1-26.8,14.6-38.6-2.4
	c-11.8-17.4-1-35.2,3.8-40.7c4.5-5.6,12.2-9.7,15-5.6c3.8,6.6-5.2,8.4-9,12.9c-3.5,4.5-9,19.8-2.8,26.8c6.6,7,18.8,7.7,32.7-2.8
	c11.5-8.7,30.3-20.9,48.7-19.5c18.8,1,28.6,9.7,31.3,10.4c2.8,0.3,5.2-5.9,9-7.3c2.8-1,6.6,2.4,9,1.4c2.1-1.4,4.5-7,7.3-8
	c3.1-1,10.8,4.2,13.2,2.4c2.1-1,1.7-7.7,5.2-8c3.5-0.7,9.4,5.6,11.8,4.5c3.1-1.7,3.1-5.2,6.3-5.2c2.4,0,8,8.4,10.8,7.7
	c2.1-0.3,1.4-8.7,4.5-9.7c3.1-1,11.1,5.6,13.9,4.5c2.1-1,2.4-11.1,6.3-13.2c3.5-1.4,7,4.2,9.1,3.1c2.8-1,4.5-12.5,7.7-12.9
	c2.8-0.3,8.4,3.1,10.8,2.4c2.1-0.3,1-10.8,5.2-12.9c4.2-1.4,9.4,5.2,10.8,4.9c2.1-0.7,3.1-6.3,5.2-6.6c2.4-0.7,8.7,4.5,11.8,3.8
	c2.4-1,1.4-8.7,4.2-9.1c2.1-0.7,10.8,1,10.1-8.7c-0.3-9.7-12.9-19.1-24.7-19.1c-21.6,0-43.2,9.4-61.6,12.9
	c-18.4,3.1-56.4,14.3-65.8,16c-9.4,1.4-18.4-3.8-10.1-10.5c6.6-6.3,10.1-1.4,10.1-3.5c0-2.1-4.2-4.2-10.1-5.2
	c-6.3-1-13.6,5.2-21.6,4.2c-8-1-16-7.3-24.7-5.6c-21.2,2.4-24.4,11.8-35.2,15.7c-10.8,4.2-18.8,1.1-24.7,1.7
	c-14.6,2.1-19.8,10.8-30.6,9.7c-12.9-1-19.1-8.4-33.1-12.2c-13.2-4.2-38.6-8-44.6-10.1c-6.3-2.4-33.8-9.1-40.4-9.7
	c-7.3-1-10.8,1-13.9,1c-3.5,0-8-2.1-12.9-2.4c-4.5-0.7-11.8-1-15,0c-2.8,1.4-3.8,1.4-7.6,0.4c-3.1-0.3-14.6-2.4-19.5-1.7
	c-7,0.3-9.7,4.9-15,5.6c-4.9,0.3-9.7-2.1-15.3-1c-5.6,1-10.1,3.1-15,4.5c-4.5,1.7-12.9,0.7-16.7,1c-10.4,2.4-11.8,7.7-15.7,7.7
	c-3.5,0-16-2.1-19.8,0c-4.2,1.7-7.7,4.9-10.8,5.2c-3.8,0.3-17.8,2.4-26.5,1.4c-4.9-0.3-13.2,3.8-16.7,4.9c-4.2,1-13.9,1-16.7-3.8
	c-2.8-5.9,4.9-14.6,17.8-25.1c8.7-6.6,57.8-41.1,137.5-54c62.3-10.4,135-36.6,150.4-52.6c6.6-6.6,33.4-29.2,40-43.2
	c6.6-13.9,8.7-21.9,5.2-21.6c-3.5,1-7.7,8.4-14.3,10.8c-6.3,2.1-11.8-1.4-16.7,0.7c-4.5,1.4-9.7,8.7-14.6,9.1
	c-5.2,0.7-7.3-3.8-11.1-2.1c-3.8,2.8-10.1,7.3-14.3,8.4c-8.7,1.4-9-8.7-17.1-4.5c-8.4,4.2-14.3,11.1-22.6,12.9
	c-7.7,1-6.6-4.9-11.8-4.9c-8.4,0-16.4,11.5-20.2,11.5c-3.8,0-7-6.3-11.8-5.6c-4.5,0.3-18.8,11.1-24.4,12.9c-5.9,1-7-8-11.8-7.3
	c-5.9,0.3-16.7,10.8-22.6,12.2c-6.3,1-9.7-3.1-13.9-3.1s-17.1,10.8-23.3,12.5c-9,2.1-9.7-9.4-19.5-8.7c-7,0.3-14.3,9.8-19.8,10.1
	c-5.9,0.7-8.4-3.8-15-2.4c-7.3,2.1-21.6,11.8-26.5,12.9c-4.5,1-8-1.7-13.6,0c-10.4,3.1-20.2,17.1-26.8,20.5
	c-7.3,4.2-12.5,2.1-16.4,4.5c-7,4.9-8,14.6-14.6,17.4c-5.9,3.1-5.6-1.4-11.1,2.1c-9.4,7-5.9,14.6-8.7,18.1
	c-2.8,3.5-10.4,6.3-15,11.8c-4.5,5.2-4.5,8.4-6.3,11.8c-2.1,3.5-10.1,13.9-11.8,18.5c-1,4.5,1,9.4-1,12.9c-1.4,3.1-4.5,8.4-6.3,12.2
	c-2.8,9.1,1,18.1,0.7,21.6c-0.7,3.1-4.2,8.4-4.2,12.5c0,4.2,4.2,12.2,3.1,18.4c-1,6.3-13.9,47.7-6.6,66.5c8,19.5,19.8,29.9,24,28.2
	c4.5-1.4,1.7-9.8,6.3-17.4c4.5-7.3,9.7-16.4,13.9-10.1c3.5,5.9-8.4,5.9-9.4,23c-1.4,16.4,0.7,9.4,0,14.3c-0.3,5.2-10.8,15-10.8,19.5
	c0,4.9,1,17.1,16.4,29.9c9.4,8.4,11.5,13.9,13.9,14.3c2.1,0.7,4.2-9.8,8.7-11.8c6.3-2.8,19.8,9.4,22.3,9.1c3.1-1,4.2-17.8,9.7-20.9
	c5.6-2.4,19.1,8.4,21.9,7c2.8-2.1-0.4-12.5,1-16.7c1.7-3.8,9.4-4.9,7-11.8c-2.1-7-3.1-20.5-27.8-22.3c-7.3-0.7-17.4-1.7-10.8-9.4
	c7.7-7.7,16-35.9-2.1-57.8c-7.7-9.4-25.1-4.2-29.9-2.1c-8.7,3.1-17.4,14.6-20.9,11.5c-3.1-3.1,7-16,22.6-20.5
	c15.3-4.9,34.8-3.8,42.5,15.3c13.6,33.4,0,49.1,1.7,52.6c2.1,3.5,9.7-0.3,20.5,6.3c15.3,10.1,13.2,18.8,17.1,21.9
	c3.5,2.8,21.9,4.2,39,5.2c17.4,1,36.5,5.6,44.5,1c12.9-6.6,13.9-31.3,43.9-49.4c15-9,34.8-18.1,57.1-14.3c24.7,3.5,25.1,7,23,10.1
	c-0.3,1.7-1,4.2-1.4,3.8c-11.8-6.3-28.9-7-39.3-4.9c-15.3,2.8-41.4,7-60.6,40.4c-18.8,33.4,11.5,33.8,14.6,34.8
	c3.5,1.4,9.1,3.1,8.7,12.9c-0.7,9.8,2.4,15.3,5.9,21.6c4.2,5.6,10.8,10.1,10.8,10.1s4.9-11.1,10.4-13.6c5.6-3.1,12.2,2.4,15.3,5.9
	c9.7,12.5,5.6-10.8,12.5-13.2c10.1-3.1,13.9,11.8,19.5,9c10.1-4.5,4.5-11.5,11.8-14.3c7.7-2.1,12.2,4.2,15.3,2.1
	c3.5-2.4,3.1-24-3.5-32.7c-7.3-9.1-18.1-24.4-41.1-24.4c-22.6,0-29.9-3.1-28.9-7.7c1-4.5,5.6-7.7,11.1-5.6c8.7,3.1,9.7,2.4,23.7,3.1
	c20.2,0.4,15.7,9.1,32.4,16.4c12.5,5.2,28.9-3.5,49.1,0c20.5,3.5,37.6,7.3,56.4,6.3c35.5-1,74.8-16.7,82.5-17.8
	c8-1.4,12.2-0.3,12.2-2.8c0-2.1-34.5-7.3-32.4-15.7c2.8-8,19.1-1.4,41.8,3.8c22.6,4.9,71,9,89.8,8c20.2-0.3,54.6,8.7,82.8,2.1
	c14.3-3.5,27.8-12.2,29.2-21.9C789.8,416.7,776.9,409.4,774.2,407.3L774.2,407.3z M579.9,287.9c5.6-1,15.3,1.4,12.9,7.7
	c-2.1,6.3-3.1,5.2-7.7,6.3c-4.5,1-13.9,2.1-16.4-2.1C566.7,295.6,573.7,289.3,579.9,287.9L579.9,287.9z M438.3,127.4
	c3.5,1.7,3.8,6.6,3.5,9.8c-1,2.8-2.8,5.6-4.5,5.6c-2.8,0-2.8-3.8-3.8-7.7C432.4,131.9,434.4,125.3,438.3,127.4L438.3,127.4z
	 M406.3,137.1c7.3,1.7,4.5,8.4,3.1,16c-1,5.2-5.6,6.6-6.3,7.7c-2.4,4.5-3.1-15.3-3.1-15.3S402.1,136.1,406.3,137.1L406.3,137.1z
	 M370.8,142.7c2.8-0.3,7.7,10.4,4.9,19.8c-3.1,9.1-7,9.1-7,9.1s-1-10.1-2.1-11.1C365.5,158.7,363.4,144.5,370.8,142.7L370.8,142.7z
	 M338.7,147.9c6.6-2.4,8.4,12.5,5.2,20.2c-2.8,8-2.8,12.9-7.7,9.7c-5.9-2.8-1-12.5-2.8-15.3C331.4,157.7,333.2,150.7,338.7,147.9
	L338.7,147.9z M303.2,156.3c8.4-1,7.3,12.2,5.2,19.5c-2.4,6.6-4.2,9.7-7.7,8.7c-3.8-1.4,1-10.1-1-13.9
	C297,167.1,298.7,156.6,303.2,156.3L303.2,156.3z M266.7,162.9c4.9,1,8.4,8.4,5.9,18.5c-2.1,10.4-5.2,12.9-8,12.9s1-16.4-1.4-16.4
	C261.1,177.9,260.8,161.9,266.7,162.9z M230.8,175.1c3.1,0,10.1,5.9,6.6,16.7c-3.5,11.1-3.5,10.1-6.6,11.1c-3.5,0.7-1-6.6-3.1-10.8
	C225.3,188.7,222.1,174.7,230.8,175.1L230.8,175.1z M198.5,186.6c6.3-0.3,8.7,12.9,7.3,18.4c-1,5.6-3.1,12.5-7,11.5
	c-3.5-0.7,0.7-10.8-2.4-10.8C193.9,205.7,189.1,186.9,198.5,186.6L198.5,186.6z M177.9,224.5c-4.2,7.7-3.8,7.7-6.6,7.7
	c-2.8,0-1-11.1-4.2-11.1c-2.8,0-5.2-16.4,3.5-17.1C180,203.6,180.4,219,177.9,224.5L177.9,224.5z M164,172.3c2.1,0,7.3,3.5,2.4,8.7
	c-4.5,5.2-4.9,8.7-9,6.6C153.2,186.2,157.4,172.7,164,172.3z M45.7,282.3c2.8,0,6.3,7,5.9,9.7c-0.7,2.1-1,5.6-5.2,6.6
	c-3.8,1-5.2-5.2-5.2-6.3C40.8,291,39.8,281.6,45.7,282.3z M49.8,327.9c-2.1,0-4.5,0-6.3-1.4c-1-1.7-8-8.7-2.8-15.7
	c0.3-1,9.1,4.9,10.8,8.7C52.6,322.4,52.6,327.9,49.8,327.9z M57.2,269.8c-1,1.7-3.8,2.8-5.6,1.7c-2.8-1.7-2.8-7.3-1.7-8.4
	c0.7-0.3,1-8.7,6.6-7.7c2.8,0.3-0.3,7.3,0,8C57.2,264.6,58.5,268.4,57.2,269.8z M289,305.3c0.3-2.4,4.2-4.5,8-3.5
	c4.9,0.3,10.4,4.5,9.4,7.7c-0.3,3.1-5.6,5.6-10.8,3.1C291,310.5,287.9,308.4,289,305.3z M295.9,327.9c3.1-0.3,11.5-1,10.8,3.5
	c-0.3,4.2-2.4,5.2-9,6.3c-6.6,1-10.8-3.1-10.8-5.2C287.2,329,292.4,328.6,295.9,327.9L295.9,327.9z M278.5,280.2
	c3.8,0,7.3,3.1,6.3,5.6c-1,2.4-1.4,5.6-8.4,4.2c-2.4-1-5.6-4.5-5.6-6.6C270.9,279.2,275,279.5,278.5,280.2z M240.9,288.9
	c0.7-3.5,7.3-4.2,10.4-2.8c3.5,1.7,5.6,6.3,3.5,8.4c-2.4,1.7-4.9,1-9.1,0C241.6,293.5,240.6,292.4,240.9,288.9z M236.4,305
	c5.2,0,11.5,3.8,8.7,6.6c-2.1,2.1-4.2,3.5-9.7,3.5s-7.7-2.1-7.7-5.2C227.7,307,231.2,304.3,236.4,305L236.4,305z M227.4,327.9
	c5.9-1,10.1,2.4,9.7,5.6c0,3.1-5.2,5.9-8.7,5.9c-4.2,0-10.1-1-10.8-5.9C216.9,329.3,224.2,328.6,227.4,327.9z M211.3,355.8
	c-1-3.1,6.3-4.5,9.7-5.2c3.1-0.3,9.7,1,8.7,4.2c-1,2.4-3.1,5.6-8.7,5.6C215.5,360,212.4,358.2,211.3,355.8z M220,375.3
	c-1,4.5-5.2,5.2-8.4,5.6c-3.5,0.7-9.1,0-9.1-3.5c0-3.8,4.9-6.6,7.7-7.7C215.9,368.7,221.1,371.8,220,375.3L220,375.3z M204.7,290
	c2.1,0.3,8.7,2.1,9,5.2c0,2.4,1.7,5.9-5.6,5.9c-6.6,0-9.4-1-10.8-4.5C195.3,292.4,202.6,289.3,204.7,290L204.7,290z M203.7,314.7
	c7,1.4,8,1.4,8.7,4.5c0.3,3.1-4.9,5.2-10.8,6.3c-6.3,1-9.7-1.7-11.5-4.9C189.1,317.8,196.7,313.7,203.7,314.7L203.7,314.7z
	 M191.9,343.3c3.5-0.3,7.7,1,7.7,4.9c-0.7,3.1-2.8,4.5-6.3,5.9c-3.1,1.7-10.1-1-11.1-3.5C181.1,348.1,188,344,191.9,343.3
	L191.9,343.3z M185.6,372.2c0,3.1-6.3,5.6-9.4,6.3c-2.4,0.3-4.5,2.4-6.6,0.3c-2.4-2.1-2.1-4.2-0.3-5.6c1-1.4,7.7-4.5,9.1-5.2
	C181.1,366.9,185.9,369.7,185.6,372.2L185.6,372.2z M171.3,298c5.6,0,8,3.1,9.1,5.9c0.7,2.4,0,3.8-1.4,4.9c-1,1-7.3,0.7-10.8-1.4
	C163.3,305,165.1,298,171.3,298L171.3,298z M143.5,221.1c7.7-0.7,9,9.7,7.3,19.1c-2.8,9-3.8,9-7.3,8c-3.1-1,0-6.3-2.1-8.7
	C138.9,237.4,134.8,221.4,143.5,221.1z M137.9,182.1c7-1,4.5,7.7,3.1,10.1c-2.1,3.1,0.3,7.7-4.2,7.3c-4.9-0.7-4.2-6.6-4.9-9.7
	C131.6,186.2,133.7,182.4,137.9,182.1z M113.2,213.4c1.4-2.1,2.4-7.3,7-7.7c3.1-0.7,2.1,8,1.7,12.2c0,4.2,1,9.4-4.5,7.3
	C111.5,223.1,111.5,215.8,113.2,213.4z M91.6,214.4c1,0,1-0.7,1-0.7s4.9-8,9.7-5.6c2.1,0.3-3.1,10.4-3.8,12.2
	c-1,2.8-4.5,4.9-7.7,2.1C87.8,219.3,90.6,214.4,91.6,214.4z M77,232.9c2.8,1,0,10.1-1,14.3c-0.3,4.2-3.5,6.3-6.6,5.2
	c-3.1-0.3-1.4-7.7-2.4-7.7C66.2,244,70.4,231.8,77,232.9L77,232.9z M66.9,302.2c2.1,0.7,2.4,4.9,2.4,5.6c0,1.7,2.1,2.8,3.1,5.9
	c0.7,2.4-1,4.9-3.5,5.6c-2.8,0-5.2-5.2-5.2-5.2C63.8,314.7,61.7,301.8,66.9,302.2L66.9,302.2z M75.6,345c-2.1,1.4-4.5,2.4-7.7,2.1
	c-3.1-1-6.6-6.3-3.8-9.4c2.8-2.4,7-0.3,9,1C75.3,340.5,77.7,343.3,75.6,345z M76.6,286.2c-4.2-0.7-2.4-8.7-3.1-8.7
	c0,0,4.2-14.3,8.4-11.8c3.1,2.1,1.4,11.5,1,16C82.2,285.8,80.1,287.2,76.6,286.2L76.6,286.2z M84.3,312.6c-1.4-0.7-3.1-9.8,3.1-10.4
	c2.4,0,6.6,4.9,6.6,7.7c-0.3,3.1,0.7,7.3-5.2,7C83.3,316.1,85.3,313,84.3,312.6L84.3,312.6z M99.3,357.2c-2.1,0-6.3-0.3-8.7-4.2
	c-2.1-2.8-2.8-7.7,0-9.1c2.1-1,7.7,2.4,10.1,7.3C103.4,355.8,100.7,357.2,99.3,357.2z M106.6,339.8c-2.8-0.3-5.9-1.4-8.4-4.5
	c-2.4-2.8-2.4-8.7,1.4-9.4c5.9-1,9.4,4.2,11.5,8.7C112.5,339.4,108.3,339.8,106.6,339.8L106.6,339.8z M112.1,315.1
	c-2.8,0-4.2-1-5.6-3.1c-2.1-1.4-2.8-7.7,2.8-7.7c2.8,0,7,2.1,7.3,5.2C117.4,313,114.6,314.7,112.1,315.1L112.1,315.1z M117.4,244.7
	c3.8,0,10.8,4.2,8.7,16.4c-2.8,11.8-4.2,7.7-6.6,8.4c-2.1,1-0.7-6.6-2.1-8.4C114.6,258,108,244.7,117.4,244.7z M124.3,359.3
	c-2.4-1-5.6-2.4-5.9-6.3c-1-3.5,2.8-4.5,5.9-3.8c3.8,0.3,6.6,3.5,6.6,5.9C130.9,358.2,126.4,360,124.3,359.3z M130.9,335.3
	c-1.7,0.3-2.8,1.4-6.6,0.3c-3.5-1.4-10.8-9-4.2-13.2c2.1-1.7,10.1,0.3,11.8,6.3C134.8,333.5,133,334.2,130.9,335.3z M131.6,311.6
	c-1-1,1-6.6,6.6-5.2c5.2,1,6.6,4.5,6.3,7.7c-1,3.1-4.5,3.1-7.3,2.8C134.8,316.1,133,312.6,131.6,311.6L131.6,311.6z M152.5,372.2
	c-1.7,1-5.6,2.1-10.8,1.4c-4.5-0.3-5.6-1.7-3.8-4.5c2.1-2.4,3.5-3.1,7.7-4.5c4.2-1.7,9.1,0.3,10.1,2.1
	C156.7,368,154.6,371.8,152.5,372.2z M159.5,349.5c-2.8,1.7-8.7,0-10.4-4.2c-1.4-4.5,1-5.6,3.1-6.6c2.4-0.3,8.4,2.4,9.4,6.3
	C161.9,347.4,161.9,348.1,159.5,349.5z M165.1,329.3c-2.4,0-11.5-1.4-9.7-5.9c1-4.9,6.3-4.9,9.1-4.2c1.7,0,9,2.4,7.3,6.6
	C170.6,330.4,167.5,329,165.1,329.3z M245.1,411.5c0,2.4-1.4,4.2-3.5,4.2c-2.4,0-9.4-1.7-12.9,1c-3.5,2.4-5.6,7-5.2,10.1
	c0.7,2.4,0.7,6.3-1,7.3c-1.4,1.4-8-1-10.8-0.7c-2.4,0-11.1,2.1-13.2,6.6c-2.4,4.2-0.7,7.3-2.1,8.4c-1.4,1.7-3.5,2.4-5.6,2.4
	c-2.1,0.7-11.5-0.7-12.9,0.7c-2.1,1.4-7.3,7.7-8.7,5.6c-1.7-2.1-4.2-1,0.3-8.7c2.1-3.5,7.7-7.3,8.4-7.3c0.3,0,7.3,0.7,8.7-0.3
	c1.4-1.4,5.6-9.8,7.3-11.5c7-5.6,6.6-3.5,8.7-4.5c2.1-0.3,9.1,1.1,9.7-0.3c1-2.1,5.2-9.8,8.7-12.9c4.5-4.2,11.8-4.9,12.9-5.6
	c0.3-1,2.1-3.8,3.1-5.9c1.4-2.1,7.7-7.3,11.8-6.3c2.1,0.7-5.2,10.4-5.2,12.5C243,408.4,245.1,408.7,245.1,411.5L245.1,411.5z
	 M250.3,381.9c-5.2,1-10.8,0.7-11.1-2.1c-0.7-2.1,1-5.2,4.5-6.6c3.1-1.4,6.3-0.3,8.7-0.3c2.1,0,7.3,0,6.6,1.7
	C258.7,376.3,255.5,380.9,250.3,381.9z M257.6,358.2c-5.9,0.7-11.5-1-10.8-3.5c1-2.8,4.5-5.2,9.7-5.2c5.2-0.3,8.7,1,8.7,3.5
	C265.3,355.1,263.2,357.9,257.6,358.2z M269.5,330c-1,4.2-3.1,5.2-7,5.6c-3.8,0-11.5-1-11.5-7c0-2.8,8-4.2,9.7-4.2
	C262.5,323.8,269.8,325.9,269.5,330L269.5,330z M275,307.7c-0.7,3.1-5.2,5.9-8.7,4.9c-3.8-1-8.7-1.7-8.4-5.2c0-2.1,3.1-5.2,8.7-4.5
	C272.6,302.9,275.4,305.3,275,307.7z M293.5,375.3c-1.4,1.4-3.1,5.2-7.3,6.3c-3.8,0.3-8.7,2.1-10.8-2.8c-1-2.4,0.7-4.5,3.8-6.6
	c2.4-1.4,10.8-1.4,10.8-1.4s1-2.8,3.1-1C295.2,371.1,295.2,373.5,293.5,375.3L293.5,375.3z M303.2,356.8c-3.5,0-11.8,0.3-12.2-3.8
	c-1-1.7,4.5-3.8,8-4.9c4.2-1,7-1,8.4-0.7c1.4,0.7,5.2,2.1,5.2,3.8C312.6,353,306.4,356.1,303.2,356.8L303.2,356.8z M307.8,287.2
	c-1.4-3.5-1.7-6.6-0.3-8c2.4-1.7,10.8,1.4,12.2,5.2c2.1,3.5,2.1,7.7-1.4,8.7C314.7,293.5,308.8,290.3,307.8,287.2z M320.3,307.4
	c-0.7-3.1,5.6-5.6,9.7-5.2c3.5,0.7,9.7,4.2,8.7,7.7c-1.4,3.8-2.1,4.9-5.2,4.9C330.4,314.7,320.6,312.6,320.3,307.4z M323.4,332.1
	c-0.7-2.8,5.6-4.2,8-4.2c2.1,0,11.5,1.4,8.7,5.2c-1.7,3.5-5.6,5.2-8.7,5.2C329,338.4,324.5,334.6,323.4,332.1z M342.2,361.4
	c-3.5,2.4-5.9,2.4-10.1,2.4c-3.8,0-4.5-2.4-4.5-5.6c0-2.4,3.8-4.2,5.6-4.5c2.1-0.7,4.5,0,6.6-0.7c1.4-0.3,1.4-0.3,3.5-1
	c1.7-0.3,2.8-0.7,3.1,2.1C347.1,356.8,346,359.3,342.2,361.4z M349.2,291c-1.7,1-1.7,2.1-5.2,1.4c-4.2-0.3-6.3-6.6-7.3-7
	c-1.4-0.7-4.5-4.2-3.1-5.9c1.7-1.4,9.4-1.4,12.9,1.7C350.6,284.8,350.6,290,349.2,291L349.2,291z M356.8,305.3c1-1,3.5-2.4,6.6-2.4
	c3.1,0,7.3,2.1,8.7,4.2c1,2.4,1,4.5-1,6.6c-1.4,1.4-10.8-1-12.2-2.8C356.8,308.8,356.1,307,356.8,305.3L356.8,305.3z M359.3,336.6
	c-1,1-1.4-2.4,0-4.2c2.1-1.4,6.6-3.8,9.4-3.8c2.4,0,6.6,0.7,5.9,2.8c-0.4,2.1-1.1,7.3-6.6,7.3C362.4,339.4,360.3,336.3,359.3,336.6
	L359.3,336.6z M370.1,362.4c-4.5,0.3-7.7-0.3-8.4-4.2c-0.3-3.5,3.1-4.5,3.8-4.5c0.3,0,4.2-0.7,5.2-1c2.4,0,6.6-3.1,8.7,0
	C380.5,354.7,374.6,361.4,370.1,362.4L370.1,362.4z M385,292.1c-0.7,1.4-2.1,5.6-7.3,4.2c-5.2-1.7-7.7-4.2-9-6.3
	c-1-2.1-4.9-5.2-1.7-8.4c1.7-1.4,9.7,1.7,13.6,4.5C383.6,289.3,385.4,290,385,292.1z M388.5,307c1-2.1,5.2-3.1,8.4-3.1
	c3.1,0.3,7.3,1.4,8,4.9c0.7,3.1,0,4.2-1,5.9c-1.7,1.4-8-0.7-10.4-1.7C390.6,311.9,387.5,308.4,388.5,307L388.5,307z M389.2,331.1
	c0-2.4,3.5-2.1,5.2-2.4c0.7-0.7,1.7-1.7,4.5-2.1c2.1-0.7,6.6-0.7,6.6,1.4c0.7,1.4,0,4.5-5.6,6.3
	C393.7,336.3,389.6,333.5,389.2,331.1L389.2,331.1z M409.4,354.1c0,0-4.5,4.2-5.6,5.9c-1.7,1-4.5,3.8-8.7,0.3
	c-2.4-2.4,0-6.6,1.7-7.7c1.4-1.4,11.8-7.7,13.9-4.5C412.5,351.3,409.4,354.1,409.4,354.1L409.4,354.1z M415.6,292.4
	c-2.1,3.1-5.2,2.8-9,2.1c-3.5-0.3-9.7-4.5-9.4-8.7c0.7-3.5,7-2.4,10.4-1C411.5,286.2,418.1,289.3,415.6,292.4z M457.1,340.5
	c-2.1,0-7.3-5.2,1-6.3c3.1-0.7,3.5,1.4,3.5,4.5C461.6,341.2,458.8,340.5,457.1,340.5L457.1,340.5z M461.6,316.1
	c-3.5-1-4.9-2.4-2.8-5.2c2.4-2.1,3.5-1.4,6.6-0.3c2.4,1,3.1,3.1,2.4,5.2C467.5,318.2,465.4,317.1,461.6,316.1z M481.4,391.3
	c-4.9-1-9.4-7-11.8-10.4c-2.1-4.2-2.8-11.8-1-15.3c1.4-4.2,3.5-4.5,5.6-3.1c2.4,1.4,1,11.8,2.4,12.2c1.7,1,2.8,8.4,7.3,9.4
	c1.4,0,3.1,3.5,3.1,3.5S485.3,392.3,481.4,391.3L481.4,391.3z"/>
<path class="st2" d="M774.2,407.3c-2.1-1.4-9.1,5.2-11.8,4.2c-3.1-1-5.6-5.2-8-6.3c-3.1-1-4.9,0.7-8,0c-2.4-0.3-0.7-4.2-2.8-5.2
	c-2.8-1-4.2,1.7-7.3,0.7c-2.4-0.7-4.2-5.2-6.3-6.3c-2.4-0.7-3.1,2.4-5.9,1.4c-3.8-1.4-4.9-4.2-7.3-5.2c-2.1-1.4-6.6,2.8-9.7,1
	c-3.1-1.4-3.1-12.2-5.2-13.2c-2.4-1-10.1,7.7-13.2,5.6c-2.8-1.4-1.7-9.4-4.2-10.8c-2.1-1.4-11.5,6.6-13.9,5.6
	c-2.1-1-2.4-5.2-5.6-5.6c-2.8-0.3-7.7,3.5-10.8,2.4c-6.3-2.4-13.9-1.4-23.3-23.7c-1-2.8-3.1-4.5-5.2-3.5c-5.6,2.1-3.5,4.2,4.2,19.5
	c10.4,20.2,23.7,16,73.1,33.1c29.2,10.5,47.3,13.6,49.8,17.4c2.1,3.8,4.2,9-4.2,9.7c-13.2,1-16.4-5.9-18.8-7
	c-3.1-1-5.2,2.4-11.5,1.4c-7-1-4.5-4.2-7-5.2c-3.1-0.3-9.4,0-13.6-0.7c-4.2-1-4.5-6.3-6.6-5.2c-2.4,1-4.5,5.2-11.8,3.1
	c-6.6-2.8-6.6-8.4-9.4-8.7c-1.7-0.7-11.1,4.5-15.3,3.5c-9-2.8-8-10.4-10.8-11.1c-3.1-0.3-4.2,8-23.7,6.6c-19.5-2.1-27.8-0.7-40-7
	c-16.4-8.7-35.5-7.7-29.9-15.3c6.3-8,16-3.8,22.3-0.7c6.3,2.4,13.2,7.3,18.1,4.5c1.7-1.4-2.1-7-3.8-14.6
	c-2.4-13.6,9.4-17.8,8.4-19.8c-1.7-2.4-8.4-5.9-24.4-3.5c-10.8,1.7-31.7,18.1-36.9,20.5c-5.2,3.1-26.8,14.6-38.6-2.4
	c-11.8-17.4-1-35.2,3.8-40.7c4.5-5.6,12.2-9.7,15-5.6c3.8,6.6-5.2,8.4-9,12.9c-3.5,4.5-9,19.8-2.8,26.8c6.6,7,18.8,7.7,32.7-2.8
	c11.5-8.7,30.3-20.9,48.7-19.5c18.8,1,28.6,9.7,31.3,10.4c2.8,0.3,5.2-5.9,9-7.3c2.8-1,6.6,2.4,9,1.4c2.1-1.4,4.5-7,7.3-8
	c3.1-1,10.8,4.2,13.2,2.4c2.1-1,1.7-7.7,5.2-8c3.5-0.7,9.4,5.6,11.8,4.5c3.1-1.7,3.1-5.2,6.3-5.2c2.4,0,8,8.4,10.8,7.7
	c2.1-0.3,1.4-8.7,4.5-9.7c3.1-1,11.1,5.6,13.9,4.5c2.1-1,2.4-11.1,6.3-13.2c3.5-1.4,7,4.2,9.1,3.1c2.8-1,4.5-12.5,7.7-12.9
	c2.8-0.3,8.4,3.1,10.8,2.4c2.1-0.3,1-10.8,5.2-12.9c4.2-1.4,9.4,5.2,10.8,4.9c2.1-0.7,3.1-6.3,5.2-6.6c2.4-0.7,8.7,4.5,11.8,3.8
	c2.4-1,1.4-8.7,4.2-9.1c2.1-0.7,10.8,1,10.1-8.7c-0.3-9.7-12.9-19.1-24.7-19.1c-21.6,0-43.2,9.4-61.6,12.9
	c-18.4,3.1-56.4,14.3-65.8,16c-9.4,1.4-18.4-3.8-10.1-10.5c6.6-6.3,10.1-1.4,10.1-3.5c0-2.1-4.2-4.2-10.1-5.2
	c-6.3-1-13.6,5.2-21.6,4.2c-8-1-16-7.3-24.7-5.6c-21.2,2.4-24.4,11.8-35.2,15.7c-10.8,4.2-18.8,1.1-24.7,1.7
	c-14.6,2.1-19.8,10.8-30.6,9.7c-12.9-1-19.1-8.4-33.1-12.2c-13.2-4.2-38.6-8-44.6-10.1c-6.3-2.4-33.8-9.1-40.4-9.7
	c-7.3-1-10.8,1-13.9,1c-3.5,0-8-2.1-12.9-2.4c-4.5-0.7-11.8-1-15,0c-2.8,1.4-3.8,1.4-7.6,0.4c-3.1-0.3-14.6-2.4-19.5-1.7
	c-7,0.3-9.7,4.9-15,5.6c-4.9,0.3-9.7-2.1-15.3-1c-5.6,1-10.1,3.1-15,4.5c-4.5,1.7-12.9,0.7-16.7,1c-10.4,2.4-11.8,7.7-15.7,7.7
	c-3.5,0-16-2.1-19.8,0c-4.2,1.7-7.7,4.9-10.8,5.2c-3.8,0.3-17.8,2.4-26.5,1.4c-4.9-0.3-13.2,3.8-16.7,4.9c-4.2,1-13.9,1-16.7-3.8
	c-2.8-5.9,4.9-14.6,17.8-25.1c8.7-6.6,57.8-41.1,137.5-54c62.3-10.4,135-36.6,150.4-52.6c6.6-6.6,33.4-29.2,40-43.2
	c6.6-13.9,8.7-21.9,5.2-21.6c-3.5,1-7.7,8.4-14.3,10.8c-6.3,2.1-11.8-1.4-16.7,0.7c-4.5,1.4-9.7,8.7-14.6,9.1
	c-5.2,0.7-7.3-3.8-11.1-2.1c-3.8,2.8-10.1,7.3-14.3,8.4c-8.7,1.4-9-8.7-17.1-4.5c-8.4,4.2-14.3,11.1-22.6,12.9
	c-7.7,1-6.6-4.9-11.8-4.9c-8.4,0-16.4,11.5-20.2,11.5c-3.8,0-7-6.3-11.8-5.6c-4.5,0.3-18.8,11.1-24.4,12.9c-5.9,1-7-8-11.8-7.3
	c-5.9,0.3-16.7,10.8-22.6,12.2c-6.3,1-9.7-3.1-13.9-3.1s-17.1,10.8-23.3,12.5c-9,2.1-9.7-9.4-19.5-8.7c-7,0.3-14.3,9.8-19.8,10.1
	c-5.9,0.7-8.4-3.8-15-2.4c-7.3,2.1-21.6,11.8-26.5,12.9c-4.5,1-8-1.7-13.6,0c-10.4,3.1-20.2,17.1-26.8,20.5
	c-7.3,4.2-12.5,2.1-16.4,4.5c-7,4.9-8,14.6-14.6,17.4c-5.9,3.1-5.6-1.4-11.1,2.1c-9.4,7-5.9,14.6-8.7,18.1
	c-2.8,3.5-10.4,6.3-15,11.8c-4.5,5.2-4.5,8.4-6.3,11.8c-2.1,3.5-10.1,13.9-11.8,18.5c-1,4.5,1,9.4-1,12.9c-1.4,3.1-4.5,8.4-6.3,12.2
	c-2.8,9.1,1,18.1,0.7,21.6c-0.7,3.1-4.2,8.4-4.2,12.5c0,4.2,4.2,12.2,3.1,18.4c-1,6.3-13.9,47.7-6.6,66.5c8,19.5,19.8,29.9,24,28.2
	c4.5-1.4,1.7-9.8,6.3-17.4c4.5-7.3,9.7-16.4,13.9-10.1c3.5,5.9-8.4,5.9-9.4,23c-1.4,16.4,0.7,9.4,0,14.3c-0.3,5.2-10.8,15-10.8,19.5
	c0,4.9,1,17.1,16.4,29.9c9.4,8.4,11.5,13.9,13.9,14.3c2.1,0.7,4.2-9.8,8.7-11.8c6.3-2.8,19.8,9.4,22.3,9.1c3.1-1,4.2-17.8,9.7-20.9
	c5.6-2.4,19.1,8.4,21.9,7c2.8-2.1-0.4-12.5,1-16.7c1.7-3.8,9.4-4.9,7-11.8c-2.1-7-3.1-20.5-27.8-22.3c-7.3-0.7-17.4-1.7-10.8-9.4
	c7.7-7.7,16-35.9-2.1-57.8c-7.7-9.4-25.1-4.2-29.9-2.1c-8.7,3.1-17.4,14.6-20.9,11.5c-3.1-3.1,7-16,22.6-20.5
	c15.3-4.9,34.8-3.8,42.5,15.3c13.6,33.4,0,49.1,1.7,52.6c2.1,3.5,9.7-0.3,20.5,6.3c15.3,10.1,13.2,18.8,17.1,21.9
	c3.5,2.8,21.9,4.2,39,5.2c17.4,1,36.5,5.6,44.5,1c12.9-6.6,13.9-31.3,43.9-49.4c15-9,34.8-18.1,57.1-14.3c24.7,3.5,25.1,7,23,10.1
	c-0.3,1.7-1,4.2-1.4,3.8c-11.8-6.3-28.9-7-39.3-4.9c-15.3,2.8-41.4,7-60.6,40.4c-18.8,33.4,11.5,33.8,14.6,34.8
	c3.5,1.4,9.1,3.1,8.7,12.9c-0.7,9.8,2.4,15.3,5.9,21.6c4.2,5.6,10.8,10.1,10.8,10.1s4.9-11.1,10.4-13.6c5.6-3.1,12.2,2.4,15.3,5.9
	c9.7,12.5,5.6-10.8,12.5-13.2c10.1-3.1,13.9,11.8,19.5,9c10.1-4.5,4.5-11.5,11.8-14.3c7.7-2.1,12.2,4.2,15.3,2.1
	c3.5-2.4,3.1-24-3.5-32.7c-7.3-9.1-18.1-24.4-41.1-24.4c-22.6,0-29.9-3.1-28.9-7.7c1-4.5,5.6-7.7,11.1-5.6c8.7,3.1,9.7,2.4,23.7,3.1
	c20.2,0.4,15.7,9.1,32.4,16.4c12.5,5.2,28.9-3.5,49.1,0c20.5,3.5,37.6,7.3,56.4,6.3c35.5-1,74.8-16.7,82.5-17.8
	c8-1.4,12.2-0.3,12.2-2.8c0-2.1-34.5-7.3-32.4-15.7c2.8-8,19.1-1.4,41.8,3.8c22.6,4.9,71,9,89.8,8c20.2-0.3,54.6,8.7,82.8,2.1
	c14.3-3.5,27.8-12.2,29.2-21.9C789.8,416.7,776.9,409.4,774.2,407.3L774.2,407.3z M579.9,287.9c5.6-1,15.3,1.4,12.9,7.7
	c-2.1,6.3-3.1,5.2-7.7,6.3c-4.5,1-13.9,2.1-16.4-2.1C566.7,295.6,573.7,289.3,579.9,287.9L579.9,287.9z M438.3,127.4
	c3.5,1.7,3.8,6.6,3.5,9.8c-1,2.8-2.8,5.6-4.5,5.6c-2.8,0-2.8-3.8-3.8-7.7C432.4,131.9,434.4,125.3,438.3,127.4L438.3,127.4z
	 M406.3,137.1c7.3,1.7,4.5,8.4,3.1,16c-1,5.2-5.6,6.6-6.3,7.7c-2.4,4.5-3.1-15.3-3.1-15.3S402.1,136.1,406.3,137.1L406.3,137.1z
	 M370.8,142.7c2.8-0.3,7.7,10.4,4.9,19.8c-3.1,9.1-7,9.1-7,9.1s-1-10.1-2.1-11.1C365.5,158.7,363.4,144.5,370.8,142.7L370.8,142.7z
	 M338.7,147.9c6.6-2.4,8.4,12.5,5.2,20.2c-2.8,8-2.8,12.9-7.7,9.7c-5.9-2.8-1-12.5-2.8-15.3C331.4,157.7,333.2,150.7,338.7,147.9
	L338.7,147.9z M303.2,156.3c8.4-1,7.3,12.2,5.2,19.5c-2.4,6.6-4.2,9.7-7.7,8.7c-3.8-1.4,1-10.1-1-13.9
	C297,167.1,298.7,156.6,303.2,156.3L303.2,156.3z M266.7,162.9c4.9,1,8.4,8.4,5.9,18.5c-2.1,10.4-5.2,12.9-8,12.9s1-16.4-1.4-16.4
	C261.1,177.9,260.8,161.9,266.7,162.9z M230.8,175.1c3.1,0,10.1,5.9,6.6,16.7c-3.5,11.1-3.5,10.1-6.6,11.1c-3.5,0.7-1-6.6-3.1-10.8
	C225.3,188.7,222.1,174.7,230.8,175.1L230.8,175.1z M198.5,186.6c6.3-0.3,8.7,12.9,7.3,18.4c-1,5.6-3.1,12.5-7,11.5
	c-3.5-0.7,0.7-10.8-2.4-10.8C193.9,205.7,189.1,186.9,198.5,186.6L198.5,186.6z M177.9,224.5c-4.2,7.7-3.8,7.7-6.6,7.7
	c-2.8,0-1-11.1-4.2-11.1c-2.8,0-5.2-16.4,3.5-17.1C180,203.6,180.4,219,177.9,224.5L177.9,224.5z M164,172.3c2.1,0,7.3,3.5,2.4,8.7
	c-4.5,5.2-4.9,8.7-9,6.6C153.2,186.2,157.4,172.7,164,172.3z M45.7,282.3c2.8,0,6.3,7,5.9,9.7c-0.7,2.1-1,5.6-5.2,6.6
	c-3.8,1-5.2-5.2-5.2-6.3C40.8,291,39.8,281.6,45.7,282.3z M49.8,327.9c-2.1,0-4.5,0-6.3-1.4c-1-1.7-8-8.7-2.8-15.7
	c0.3-1,9.1,4.9,10.8,8.7C52.6,322.4,52.6,327.9,49.8,327.9z M57.2,269.8c-1,1.7-3.8,2.8-5.6,1.7c-2.8-1.7-2.8-7.3-1.7-8.4
	c0.7-0.3,1-8.7,6.6-7.7c2.8,0.3-0.3,7.3,0,8C57.2,264.6,58.5,268.4,57.2,269.8z M289,305.3c0.3-2.4,4.2-4.5,8-3.5
	c4.9,0.3,10.4,4.5,9.4,7.7c-0.3,3.1-5.6,5.6-10.8,3.1C291,310.5,287.9,308.4,289,305.3z M295.9,327.9c3.1-0.3,11.5-1,10.8,3.5
	c-0.3,4.2-2.4,5.2-9,6.3c-6.6,1-10.8-3.1-10.8-5.2C287.2,329,292.4,328.6,295.9,327.9L295.9,327.9z M278.5,280.2
	c3.8,0,7.3,3.1,6.3,5.6c-1,2.4-1.4,5.6-8.4,4.2c-2.4-1-5.6-4.5-5.6-6.6C270.9,279.2,275,279.5,278.5,280.2z M240.9,288.9
	c0.7-3.5,7.3-4.2,10.4-2.8c3.5,1.7,5.6,6.3,3.5,8.4c-2.4,1.7-4.9,1-9.1,0C241.6,293.5,240.6,292.4,240.9,288.9z M236.4,305
	c5.2,0,11.5,3.8,8.7,6.6c-2.1,2.1-4.2,3.5-9.7,3.5s-7.7-2.1-7.7-5.2C227.7,307,231.2,304.3,236.4,305L236.4,305z M227.4,327.9
	c5.9-1,10.1,2.4,9.7,5.6c0,3.1-5.2,5.9-8.7,5.9c-4.2,0-10.1-1-10.8-5.9C216.9,329.3,224.2,328.6,227.4,327.9z M211.3,355.8
	c-1-3.1,6.3-4.5,9.7-5.2c3.1-0.3,9.7,1,8.7,4.2c-1,2.4-3.1,5.6-8.7,5.6C215.5,360,212.4,358.2,211.3,355.8z M220,375.3
	c-1,4.5-5.2,5.2-8.4,5.6c-3.5,0.7-9.1,0-9.1-3.5c0-3.8,4.9-6.6,7.7-7.7C215.9,368.7,221.1,371.8,220,375.3L220,375.3z M204.7,290
	c2.1,0.3,8.7,2.1,9,5.2c0,2.4,1.7,5.9-5.6,5.9c-6.6,0-9.4-1-10.8-4.5C195.3,292.4,202.6,289.3,204.7,290L204.7,290z M203.7,314.7
	c7,1.4,8,1.4,8.7,4.5c0.3,3.1-4.9,5.2-10.8,6.3c-6.3,1-9.7-1.7-11.5-4.9C189.1,317.8,196.7,313.7,203.7,314.7L203.7,314.7z
	 M191.9,343.3c3.5-0.3,7.7,1,7.7,4.9c-0.7,3.1-2.8,4.5-6.3,5.9c-3.1,1.7-10.1-1-11.1-3.5C181.1,348.1,188,344,191.9,343.3
	L191.9,343.3z M185.6,372.2c0,3.1-6.3,5.6-9.4,6.3c-2.4,0.3-4.5,2.4-6.6,0.3c-2.4-2.1-2.1-4.2-0.3-5.6c1-1.4,7.7-4.5,9.1-5.2
	C181.1,366.9,185.9,369.7,185.6,372.2L185.6,372.2z M171.3,298c5.6,0,8,3.1,9.1,5.9c0.7,2.4,0,3.8-1.4,4.9c-1,1-7.3,0.7-10.8-1.4
	C163.3,305,165.1,298,171.3,298L171.3,298z M143.5,221.1c7.7-0.7,9,9.7,7.3,19.1c-2.8,9-3.8,9-7.3,8c-3.1-1,0-6.3-2.1-8.7
	C138.9,237.4,134.8,221.4,143.5,221.1z M137.9,182.1c7-1,4.5,7.7,3.1,10.1c-2.1,3.1,0.3,7.7-4.2,7.3c-4.9-0.7-4.2-6.6-4.9-9.7
	C131.6,186.2,133.7,182.4,137.9,182.1z M113.2,213.4c1.4-2.1,2.4-7.3,7-7.7c3.1-0.7,2.1,8,1.7,12.2c0,4.2,1,9.4-4.5,7.3
	C111.5,223.1,111.5,215.8,113.2,213.4z M91.6,214.4c1,0,1-0.7,1-0.7s4.9-8,9.7-5.6c2.1,0.3-3.1,10.4-3.8,12.2
	c-1,2.8-4.5,4.9-7.7,2.1C87.8,219.3,90.6,214.4,91.6,214.4z M77,232.9c2.8,1,0,10.1-1,14.3c-0.3,4.2-3.5,6.3-6.6,5.2
	c-3.1-0.3-1.4-7.7-2.4-7.7C66.2,244,70.4,231.8,77,232.9L77,232.9z M66.9,302.2c2.1,0.7,2.4,4.9,2.4,5.6c0,1.7,2.1,2.8,3.1,5.9
	c0.7,2.4-1,4.9-3.5,5.6c-2.8,0-5.2-5.2-5.2-5.2C63.8,314.7,61.7,301.8,66.9,302.2L66.9,302.2z M75.6,345c-2.1,1.4-4.5,2.4-7.7,2.1
	c-3.1-1-6.6-6.3-3.8-9.4c2.8-2.4,7-0.3,9,1C75.3,340.5,77.7,343.3,75.6,345z M76.6,286.2c-4.2-0.7-2.4-8.7-3.1-8.7
	c0,0,4.2-14.3,8.4-11.8c3.1,2.1,1.4,11.5,1,16C82.2,285.8,80.1,287.2,76.6,286.2L76.6,286.2z M84.3,312.6c-1.4-0.7-3.1-9.8,3.1-10.4
	c2.4,0,6.6,4.9,6.6,7.7c-0.3,3.1,0.7,7.3-5.2,7C83.3,316.1,85.3,313,84.3,312.6L84.3,312.6z M99.3,357.2c-2.1,0-6.3-0.3-8.7-4.2
	c-2.1-2.8-2.8-7.7,0-9.1c2.1-1,7.7,2.4,10.1,7.3C103.4,355.8,100.7,357.2,99.3,357.2z M106.6,339.8c-2.8-0.3-5.9-1.4-8.4-4.5
	c-2.4-2.8-2.4-8.7,1.4-9.4c5.9-1,9.4,4.2,11.5,8.7C112.5,339.4,108.3,339.8,106.6,339.8L106.6,339.8z M112.1,315.1
	c-2.8,0-4.2-1-5.6-3.1c-2.1-1.4-2.8-7.7,2.8-7.7c2.8,0,7,2.1,7.3,5.2C117.4,313,114.6,314.7,112.1,315.1L112.1,315.1z M117.4,244.7
	c3.8,0,10.8,4.2,8.7,16.4c-2.8,11.8-4.2,7.7-6.6,8.4c-2.1,1-0.7-6.6-2.1-8.4C114.6,258,108,244.7,117.4,244.7z M124.3,359.3
	c-2.4-1-5.6-2.4-5.9-6.3c-1-3.5,2.8-4.5,5.9-3.8c3.8,0.3,6.6,3.5,6.6,5.9C130.9,358.2,126.4,360,124.3,359.3z M130.9,335.3
	c-1.7,0.3-2.8,1.4-6.6,0.3c-3.5-1.4-10.8-9-4.2-13.2c2.1-1.7,10.1,0.3,11.8,6.3C134.8,333.5,133,334.2,130.9,335.3z M131.6,311.6
	c-1-1,1-6.6,6.6-5.2c5.2,1,6.6,4.5,6.3,7.7c-1,3.1-4.5,3.1-7.3,2.8C134.8,316.1,133,312.6,131.6,311.6L131.6,311.6z M152.5,372.2
	c-1.7,1-5.6,2.1-10.8,1.4c-4.5-0.3-5.6-1.7-3.8-4.5c2.1-2.4,3.5-3.1,7.7-4.5c4.2-1.7,9.1,0.3,10.1,2.1
	C156.7,368,154.6,371.8,152.5,372.2z M159.5,349.5c-2.8,1.7-8.7,0-10.4-4.2c-1.4-4.5,1-5.6,3.1-6.6c2.4-0.3,8.4,2.4,9.4,6.3
	C161.9,347.4,161.9,348.1,159.5,349.5z M165.1,329.3c-2.4,0-11.5-1.4-9.7-5.9c1-4.9,6.3-4.9,9.1-4.2c1.7,0,9,2.4,7.3,6.6
	C170.6,330.4,167.5,329,165.1,329.3z M245.1,411.5c0,2.4-1.4,4.2-3.5,4.2c-2.4,0-9.4-1.7-12.9,1c-3.5,2.4-5.6,7-5.2,10.1
	c0.7,2.4,0.7,6.3-1,7.3c-1.4,1.4-8-1-10.8-0.7c-2.4,0-11.1,2.1-13.2,6.6c-2.4,4.2-0.7,7.3-2.1,8.4c-1.4,1.7-3.5,2.4-5.6,2.4
	c-2.1,0.7-11.5-0.7-12.9,0.7c-2.1,1.4-7.3,7.7-8.7,5.6c-1.7-2.1-4.2-1,0.3-8.7c2.1-3.5,7.7-7.3,8.4-7.3c0.3,0,7.3,0.7,8.7-0.3
	c1.4-1.4,5.6-9.8,7.3-11.5c7-5.6,6.6-3.5,8.7-4.5c2.1-0.3,9.1,1.1,9.7-0.3c1-2.1,5.2-9.8,8.7-12.9c4.5-4.2,11.8-4.9,12.9-5.6
	c0.3-1,2.1-3.8,3.1-5.9c1.4-2.1,7.7-7.3,11.8-6.3c2.1,0.7-5.2,10.4-5.2,12.5C243,408.4,245.1,408.7,245.1,411.5L245.1,411.5z
	 M250.3,381.9c-5.2,1-10.8,0.7-11.1-2.1c-0.7-2.1,1-5.2,4.5-6.6c3.1-1.4,6.3-0.3,8.7-0.3c2.1,0,7.3,0,6.6,1.7
	C258.7,376.3,255.5,380.9,250.3,381.9z M257.6,358.2c-5.9,0.7-11.5-1-10.8-3.5c1-2.8,4.5-5.2,9.7-5.2c5.2-0.3,8.7,1,8.7,3.5
	C265.3,355.1,263.2,357.9,257.6,358.2z M269.5,330c-1,4.2-3.1,5.2-7,5.6c-3.8,0-11.5-1-11.5-7c0-2.8,8-4.2,9.7-4.2
	C262.5,323.8,269.8,325.9,269.5,330L269.5,330z M275,307.7c-0.7,3.1-5.2,5.9-8.7,4.9c-3.8-1-8.7-1.7-8.4-5.2c0-2.1,3.1-5.2,8.7-4.5
	C272.6,302.9,275.4,305.3,275,307.7z M293.5,375.3c-1.4,1.4-3.1,5.2-7.3,6.3c-3.8,0.3-8.7,2.1-10.8-2.8c-1-2.4,0.7-4.5,3.8-6.6
	c2.4-1.4,10.8-1.4,10.8-1.4s1-2.8,3.1-1C295.2,371.1,295.2,373.5,293.5,375.3L293.5,375.3z M303.2,356.8c-3.5,0-11.8,0.3-12.2-3.8
	c-1-1.7,4.5-3.8,8-4.9c4.2-1,7-1,8.4-0.7c1.4,0.7,5.2,2.1,5.2,3.8C312.6,353,306.4,356.1,303.2,356.8L303.2,356.8z M307.8,287.2
	c-1.4-3.5-1.7-6.6-0.3-8c2.4-1.7,10.8,1.4,12.2,5.2c2.1,3.5,2.1,7.7-1.4,8.7C314.7,293.5,308.8,290.3,307.8,287.2z M320.3,307.4
	c-0.7-3.1,5.6-5.6,9.7-5.2c3.5,0.7,9.7,4.2,8.7,7.7c-1.4,3.8-2.1,4.9-5.2,4.9C330.4,314.7,320.6,312.6,320.3,307.4z M323.4,332.1
	c-0.7-2.8,5.6-4.2,8-4.2c2.1,0,11.5,1.4,8.7,5.2c-1.7,3.5-5.6,5.2-8.7,5.2C329,338.4,324.5,334.6,323.4,332.1z M342.2,361.4
	c-3.5,2.4-5.9,2.4-10.1,2.4c-3.8,0-4.5-2.4-4.5-5.6c0-2.4,3.8-4.2,5.6-4.5c2.1-0.7,4.5,0,6.6-0.7c1.4-0.3,1.4-0.3,3.5-1
	c1.7-0.3,2.8-0.7,3.1,2.1C347.1,356.8,346,359.3,342.2,361.4z M349.2,291c-1.7,1-1.7,2.1-5.2,1.4c-4.2-0.3-6.3-6.6-7.3-7
	c-1.4-0.7-4.5-4.2-3.1-5.9c1.7-1.4,9.4-1.4,12.9,1.7C350.6,284.8,350.6,290,349.2,291L349.2,291z M356.8,305.3c1-1,3.5-2.4,6.6-2.4
	c3.1,0,7.3,2.1,8.7,4.2c1,2.4,1,4.5-1,6.6c-1.4,1.4-10.8-1-12.2-2.8C356.8,308.8,356.1,307,356.8,305.3L356.8,305.3z M359.3,336.6
	c-1,1-1.4-2.4,0-4.2c2.1-1.4,6.6-3.8,9.4-3.8c2.4,0,6.6,0.7,5.9,2.8c-0.4,2.1-1.1,7.3-6.6,7.3C362.4,339.4,360.3,336.3,359.3,336.6
	L359.3,336.6z M370.1,362.4c-4.5,0.3-7.7-0.3-8.4-4.2c-0.3-3.5,3.1-4.5,3.8-4.5c0.3,0,4.2-0.7,5.2-1c2.4,0,6.6-3.1,8.7,0
	C380.5,354.7,374.6,361.4,370.1,362.4L370.1,362.4z M385,292.1c-0.7,1.4-2.1,5.6-7.3,4.2c-5.2-1.7-7.7-4.2-9-6.3
	c-1-2.1-4.9-5.2-1.7-8.4c1.7-1.4,9.7,1.7,13.6,4.5C383.6,289.3,385.4,290,385,292.1z M388.5,307c1-2.1,5.2-3.1,8.4-3.1
	c3.1,0.3,7.3,1.4,8,4.9c0.7,3.1,0,4.2-1,5.9c-1.7,1.4-8-0.7-10.4-1.7C390.6,311.9,387.5,308.4,388.5,307L388.5,307z M389.2,331.1
	c0-2.4,3.5-2.1,5.2-2.4c0.7-0.7,1.7-1.7,4.5-2.1c2.1-0.7,6.6-0.7,6.6,1.4c0.7,1.4,0,4.5-5.6,6.3
	C393.7,336.3,389.6,333.5,389.2,331.1L389.2,331.1z M409.4,354.1c0,0-4.5,4.2-5.6,5.9c-1.7,1-4.5,3.8-8.7,0.3
	c-2.4-2.4,0-6.6,1.7-7.7c1.4-1.4,11.8-7.7,13.9-4.5C412.5,351.3,409.4,354.1,409.4,354.1L409.4,354.1z M415.6,292.4
	c-2.1,3.1-5.2,2.8-9,2.1c-3.5-0.3-9.7-4.5-9.4-8.7c0.7-3.5,7-2.4,10.4-1C411.5,286.2,418.1,289.3,415.6,292.4z M457.1,340.5
	c-2.1,0-7.3-5.2,1-6.3c3.1-0.7,3.5,1.4,3.5,4.5C461.6,341.2,458.8,340.5,457.1,340.5L457.1,340.5z M461.6,316.1
	c-3.5-1-4.9-2.4-2.8-5.2c2.4-2.1,3.5-1.4,6.6-0.3c2.4,1,3.1,3.1,2.4,5.2C467.5,318.2,465.4,317.1,461.6,316.1z M481.4,391.3
	c-4.9-1-9.4-7-11.8-10.4c-2.1-4.2-2.8-11.8-1-15.3c1.4-4.2,3.5-4.5,5.6-3.1c2.4,1.4,1,11.8,2.4,12.2c1.7,1,2.8,8.4,7.3,9.4
	c1.4,0,3.1,3.5,3.1,3.5S485.3,392.3,481.4,391.3L481.4,391.3z"/>
<path class="st1" d="M113.9,704.8h16.8c4.6,0,8.6-3.1,9.7-7.6L144,683c0.6-2.3,2.5-3.8,4.8-3.8h31.4c2.3,0,4.3,1.5,4.8,3.8l3.6,14.3
	c1.1,4.5,5.1,7.6,9.7,7.6h16.8c5.5,0,10-4.5,10-10c0-1-0.1-1.9-0.4-2.9l-35.2-117.7c-1.2-4.3-5.1-7.2-9.6-7.1h-30.8
	c-4.5,0-8.3,2.8-9.6,7.1l-35.2,117.7c-1.6,5.3,1.4,10.9,6.7,12.5C112,704.7,112.9,704.8,113.9,704.8L113.9,704.8z M174,651.2h-19
	c-1.3,0-2.4-1.1-2.3-2.4c0-0.2,0-0.3,0.1-0.5l10.7-42.5c0.2-1,1.9-1,2.1,0l10.7,42.5c0.3,1.3-0.5,2.6-1.8,2.9
	C174.4,651.2,174.2,651.2,174,651.2L174,651.2z M402.3,708.1c36.2,0,65.6-32.1,65.6-71.7c0-39.6-29.4-71.7-65.6-71.7
	c-36.2,0-65.6,32.1-65.6,71.7C336.6,676,366,708.1,402.3,708.1L402.3,708.1z M402.3,676.1c-17.5,0-26.9-17.8-26.9-39.7
	c0-22,8.3-39.7,26.9-39.7c18.5,0,26.9,17.8,26.9,39.7C429.1,658.4,419.8,676.1,402.3,676.1z M540.8,665.5c0,8.2-6.5,12.7-15.3,12.7
	c-11.1,0-18.3-6.6-24.9-13.4c-3.5-3.6-9.4-3.5-13.1-0.1l-8.2,7.5c-3.2,2.9-5.6,7.9-2.9,11.2c8.9,11,22.2,23.5,54.2,23.5
	c28.4,0,46.2-19.8,46.2-41.2c0-17.4-7.4-29-28.2-39.6L527,615.9c-9.2-2.4-13.1-5.8-13.1-11.7c0-6.4,4.5-10.3,11.8-10.3
	c8.6,0,15.8,5.3,22.4,10.6c3.8,3.1,9.5,2.3,12.8-1.3l8.6-9.3c3-3.2,4.1-8.6,0.9-11.7c-10.4-10.1-25.9-17.7-47.1-17.7
	c-30,0-47.8,18.6-47.8,41.3c0,19.1,9.3,29,29.4,38.2l24.8,10.6C537.6,657,540.8,660,540.8,665.5L540.8,665.5z M224.7,636.4
	c0,39.6,29.4,71.7,65.6,71.7c17.3,0,33-7.3,44.7-19.3c2.1-2.1,2-5.5,0-7.7l-13.2-14.4c-2.6-2.9-6.7-2-9.5,0.7
	c-6.4,6.2-11.5,8.7-22.1,8.7c-18.5,0-26.9-17.8-26.9-39.7v0c0-22,8.3-39.7,26.9-39.7c10.6,0,15.7,2.5,22.1,8.7
	c2.8,2.7,6.9,3.5,9.5,0.7l13.2-14.4c2-2.2,2-5.6,0-7.7c-11.7-12-27.5-19.3-44.7-19.3C254.1,564.7,224.7,596.8,224.7,636.4
	L224.7,636.4z M765.6,619.7h-24.4c-2.8,0-5-2.2-5-5c0,0,0,0,0,0v-10c0-2.8,2.2-5,5-5h36c5.5,0,10-4.5,10-10c0,0,0,0,0,0v-12.5
	c0-5.5-4.5-10-10-10c0,0,0,0,0,0h-69c-5.5,0-10,4.5-10,10c0,0,0,0,0,0v117.7c0,5.5,4.5,10,10,10h69c5.5,0,10-4.5,10-10l0,0v-12.6
	c0-5.5-4.5-10-10-10l0,0h-36c-2.8,0-5-2.2-5-5c0,0,0,0,0,0v-10c0-2.8,2.2-5,5-5h24.4c5.5,0,10-4.5,10-10c0,0,0,0,0,0v-12.5
	C775.7,624.2,771.2,619.7,765.6,619.7C765.7,619.7,765.7,619.7,765.6,619.7L765.6,619.7z M625.1,704.8h18c5.5,0,10-4.5,10-10v-90.2
	c0-2.8,2.2-5,5-5h20.2c5.5,0,10-4.5,10-10l0,0v-12.5c0-5.5-4.5-10-10-10l0,0h-88.4c-5.5,0-10,4.5-10,10c0,0,0,0,0,0v12.5
	c0,5.5,4.5,10,10,10c0,0,0,0,0,0h20.2c2.8,0,5,2.2,5,5v90.2C615.1,700.3,619.6,704.8,625.1,704.8L625.1,704.8z M87,672.2H60.2
	c-2.8,0-5-2.2-5-5l0,0v-90.1c0-5.5-4.5-10-10-10h-18c-5.5,0-10,4.5-10,10v117.7c0,5.5,4.5,10,10,10l51.9,0l7.9,0c5.5,0,10-4.5,10-10
	v-12.6C97,676.6,92.5,672.2,87,672.2C87,672.2,87,672.2,87,672.2L87,672.2z"/>
<path class="st2" d="M402.3,708.1c36.2,0,65.6-32.1,65.6-71.7c0-39.6-29.4-71.7-65.6-71.7c-36.2,0-65.6,32.1-65.6,71.7
	C336.6,676,366,708.1,402.3,708.1L402.3,708.1z M402.3,676.1c-17.5,0-26.9-17.8-26.9-39.7c0-22,8.3-39.7,26.9-39.7
	c18.5,0,26.9,17.8,26.9,39.7C429.1,658.4,419.8,676.1,402.3,676.1z M113.9,704.8h16.8c4.6,0,8.6-3.1,9.7-7.6L144,683
	c0.6-2.3,2.5-3.8,4.8-3.8h31.4c2.3,0,4.3,1.5,4.8,3.8l3.6,14.3c1.1,4.5,5.1,7.6,9.7,7.6h16.8c5.5,0,10-4.5,10-10
	c0-1-0.1-1.9-0.4-2.9l-35.2-117.7c-1.2-4.3-5.1-7.2-9.6-7.1h-30.8c-4.5,0-8.3,2.8-9.6,7.1l-35.2,117.7c-1.6,5.3,1.4,10.9,6.7,12.5
	C112,704.7,112.9,704.8,113.9,704.8L113.9,704.8z M174,651.2h-19c-1.3,0-2.4-1.1-2.3-2.4c0-0.2,0-0.3,0.1-0.5l10.7-42.5
	c0.2-1,1.9-1,2.1,0l10.7,42.5c0.3,1.3-0.5,2.6-1.8,2.9C174.4,651.2,174.2,651.2,174,651.2L174,651.2z M224.7,636.4
	c0,39.6,29.4,71.7,65.6,71.7c17.3,0,33-7.3,44.7-19.3c2.1-2.1,2-5.5,0-7.7l-13.2-14.4c-2.6-2.9-6.7-2-9.5,0.7
	c-6.4,6.2-11.5,8.7-22.1,8.7c-18.5,0-26.9-17.8-26.9-39.7v0c0-22,8.3-39.7,26.9-39.7c10.6,0,15.7,2.5,22.1,8.7
	c2.8,2.7,6.9,3.5,9.5,0.7l13.2-14.4c2-2.2,2-5.6,0-7.7c-11.7-12-27.5-19.3-44.7-19.3C254.1,564.7,224.7,596.8,224.7,636.4
	L224.7,636.4L224.7,636.4z M540.8,665.5c0,8.2-6.5,12.7-15.3,12.7c-11.1,0-18.3-6.6-24.9-13.4c-3.5-3.6-9.4-3.5-13.1-0.1l-8.2,7.5
	c-3.2,2.9-5.6,7.9-2.9,11.2c8.9,11,22.2,23.5,54.2,23.5c28.4,0,46.2-19.8,46.2-41.2c0-17.4-7.4-29-28.2-39.6L527,615.9
	c-9.2-2.4-13.1-5.8-13.1-11.7c0-6.4,4.5-10.3,11.8-10.3c8.6,0,15.8,5.3,22.4,10.6c3.8,3.1,9.5,2.3,12.8-1.3l8.6-9.3
	c3-3.2,4.1-8.6,0.9-11.7c-10.4-10.1-25.9-17.7-47.1-17.7c-30,0-47.8,18.6-47.8,41.3c0,19.1,9.3,29,29.4,38.2l24.8,10.6
	C537.6,657,540.8,660,540.8,665.5L540.8,665.5z M765.6,619.7h-24.4c-2.8,0-5-2.2-5-5c0,0,0,0,0,0v-10c0-2.8,2.2-5,5-5h36
	c5.5,0,10-4.5,10-10c0,0,0,0,0,0v-12.5c0-5.5-4.5-10-10-10c0,0,0,0,0,0h-69c-5.5,0-10,4.5-10,10c0,0,0,0,0,0v117.7
	c0,5.5,4.5,10,10,10h69c5.5,0,10-4.5,10-10l0,0v-12.6c0-5.5-4.5-10-10-10l0,0h-36c-2.8,0-5-2.2-5-5c0,0,0,0,0,0v-10c0-2.8,2.2-5,5-5
	h24.4c5.5,0,10-4.5,10-10c0,0,0,0,0,0v-12.5C775.7,624.2,771.2,619.7,765.6,619.7C765.7,619.7,765.7,619.7,765.6,619.7L765.6,619.7z
	 M625.1,704.8h18c5.5,0,10-4.5,10-10v-90.2c0-2.8,2.2-5,5-5h20.2c5.5,0,10-4.5,10-10l0,0v-12.5c0-5.5-4.5-10-10-10l0,0h-88.4
	c-5.5,0-10,4.5-10,10c0,0,0,0,0,0v12.5c0,5.5,4.5,10,10,10c0,0,0,0,0,0h20.2c2.8,0,5,2.2,5,5v90.2
	C615.1,700.3,619.6,704.8,625.1,704.8L625.1,704.8z M87,672.2H60.2c-2.8,0-5-2.2-5-5l0,0v-90.1c0-5.5-4.5-10-10-10h-18
	c-5.5,0-10,4.5-10,10v117.7c0,5.5,4.5,10,10,10l51.9,0l7.9,0c5.5,0,10-4.5,10-10v-12.6C97,676.6,92.5,672.2,87,672.2
	C87,672.2,87,672.2,87,672.2L87,672.2z"/>
</svg>
