<?xml version="1.0" encoding="utf-8"?>
<!-- Generator: Adobe Illustrator 24.0.1, SVG Export Plug-In . SVG Version: 6.00 Build 0)  -->
<svg version="1.1" id="Layer_1" xmlns="http://www.w3.org/2000/svg" xmlns:xlink="http://www.w3.org/1999/xlink" x="0px" y="0px"
	 viewBox="0 0 800 800" style="enable-background:new 0 0 800 800;" xml:space="preserve">
<style type="text/css">
	.st0{fill-rule:evenodd;clip-rule:evenodd;fill:#E6C053;}
	.st1{fill-rule:evenodd;clip-rule:evenodd;fill:#D5D6D7;}
	.st2{fill-rule:evenodd;clip-rule:evenodd;}
	.st3{fill-rule:evenodd;clip-rule:evenodd;fill:#FFFFFF;}
	.st4{fill-rule:evenodd;clip-rule:evenodd;fill:#EFEFF0;}
	.st5{fill-rule:evenodd;clip-rule:evenodd;fill:#F1CD49;}
</style>
<path class="st0" d="M246.7,60h396.1c0,0,16.3-4.8,10.5,21.1c-1.9,9.6-4.8,16.3-4.8,16.3s-8.6,7.7,20.1,6.7c28.7-1,57.4,1,57.4,1
	s30.6-1.9,37.3,31.6c7.3,36.6-18.2,81.3-23,86.1c-4.8,4.8-23,20.1-56.5,20.1h-97.6c0,0,38.3,26.8,35.4,55.5
	c0,8.6,23.6,28.5,35.4,36.4c11.5,7.7,39.2,76.5,38.3,93.8c-1,17.2-18.2,40.2-23,45.9c-4.8,5.7-16.3,30.6-20.1,43.1
	s-31.6,71.8-64.1,111.9c-29.8,36.8-49.8,53.6-50.7,59.3c-1,5.7-37.3,45-70.8,50.7c-33.5,5.7-88-15.3-110-13.4
	c-11.5,0-69.8-14.4-76.5-57.4c-6.7-43.1-9.6-126.3-20.1-148.3c-10.5-22-29.7-55.5-41.1-82.3c-4.8-11.3-7.7-49.8-7.7-55.5
	c0-5.7-20.1-21-34.4-28.7c-14.4-7.7-63.1-42.1-54.5-97.6c1.9-15.3,18.5-35.6-10.5-21c-23,11.5-74.6,24.9-76.5,1.9
	c0-22,30.6-79.4,59.3-126.3c10.5-17.2,32.5-13.4,72.7-13.4h47.8c0,0,6.7-2.9,10.5-14.4C229.5,71.5,232.4,60,246.7,60L246.7,60z"/>
<path class="st1" d="M399.8,201.2c-6.8,2-12.9,5.7-17.9,10.8c-15.2,1.4-47.2,2.3-68.9,3c-13.3,0.4-23.9,0.7-29,1l-0.6,0l-0.6,0.1
	c-4.2,0.6-12.1-0.7-19.8-2c-9.7-1.6-20.6-3.5-31.4-2.9c-38.4,1.6-79.5,18.3-79.5,60.3c0,44.8,43.3,62.6,61.9,70.2l0.8,0.3l9.2,3.6
	c10,3.8,11.3,4.6,12.7,7.2c4.9,15.2,10.5,22.6,17.2,27.4c-4.1,3.1-7.5,7.1-9.9,11.6c-3,5.7-4.6,12.4-4.6,19.2
	c0,6.3,1.3,12.7,3.8,18.9l0.8,1.8l1.2,1.6c7.4,10,11.3,17.3,16.9,27.4c5,9.4,10.3,18.6,15.8,27.7c11,18.3,20,74.6,23.4,108.3
	c-0.9,8.9-1.4,17.8-1.4,26.7c0,12.4,0.9,23.7,2.7,33.6c3.5,18.8,12.5,32.4,26.6,40.4c19.5,11.1,42.7,7.3,53.5,4.5
	c10.2,4,30.4,10.4,60.7,13.3c19.4,1.9,34.4-2.2,44.5-12c8.5-8.3,10.8-18,11.4-23.9c96.7-61.5,130.8-185.5,137.6-214.4
	c2.4-2.1,6.9-5.6,12.2-9.2c4.4-1.5,8.1-4.1,10.8-7.7c2.7-3.5,4.3-7.8,4.9-12.8c0.8-1.3,1.5-2.6,2-3.9c0.8-2.2,1.2-4.6,1.2-7.2
	c0-8.7-4.5-19.6-13.3-32.5c-1.3-5.4-4.2-9.8-5.8-12.3c-0.6-0.8-1.7-2.6-2-3.2l0.1,0.2c-3.4-10.1-12.9-16-17.4-18.3
	c-8.2-6.2-31-25.9-44.3-37.6c-0.5-1.8-1-4.1-1.4-6.5c0.5-3.7,0.7-7.1,0.7-10.1c0-14.1-4.3-25.5-12.7-33.6
	c-11-10.6-25.3-12.1-34.2-11.8c-13.2-11-38.6-27.5-44.6-30.9c-9.2-5.1-24.2-10.5-46.9-18.7l-3.7-1.3
	C426.9,199.6,412.5,197.4,399.8,201.2L399.8,201.2z M437.5,218l0.3,0.2l4.3,1.5c22.1,8,36.8,13.2,45.2,17.9
	c5.9,3.3,32.6,20.7,44.5,31l1.8,1.5l2.4-0.2c6.6-0.4,19,0.1,27.8,8.5c6.1,5.9,9.2,14.4,9.2,25.3c0,2.8-0.2,5.9-0.7,9.6l-0.1,0.9
	l0.2,0.9c0.7,3.9,1.6,7.7,2.3,10.1l0.5,1.6l1.2,1.1c3.7,3.2,36.2,31.7,46.6,39.5l0.4,0.3l0.5,0.2c2.3,1.1,10,5.4,12.1,12
	c0.5,1.6,1.6,3.3,3.3,5.8c1.8,2.8,3.9,6,4.4,9.3l0.2,1.2l0.7,1c9.7,14,11.8,22.3,11.8,26.7c0,1.3-0.2,2.4-0.5,3.4
	c-0.3,0.8-0.7,1.6-1.3,2.2l-1,1.3l-0.1,1.7c-0.3,3.4-1.2,6.2-2.8,8.3c-1.5,2-3.6,3.4-6,4.1l-0.9,0.3l-0.8,0.5
	c-6.5,4.4-12.7,9.2-15.4,11.8l-1.2,1.2l-0.4,1.7c-3.4,15.1-36.3,149-134.6,210.2l-1.5,1l-1.9,4.4l-0.1,1c-0.2,4-1.6,11.6-8.1,17.9
	c-7.6,7.4-19.5,10.4-35.4,8.8c-31.8-3-52-10.3-59.3-13.2l-1.8-0.7l-1.9,0.5c-8.4,2.3-29.7,6.7-46.6-2.9c-11-6.3-18.1-17.2-21-32.6
	c-1.6-9.2-2.5-19.8-2.5-31.5c0-12.5,1-22.4,1.4-26.1l0.1-0.6l-0.1-0.6c-0.1-0.9-8.9-86.7-25.1-113.6c-7-11.6-11.7-20.3-15.5-27.3
	c-5.7-10.5-9.9-18.2-17.7-28.8l-0.3-0.5l-0.2-0.5c-2-4.8-3-9.7-3-14.5c0-5,1.1-9.8,3.3-13.8c2.1-4.1,5.3-7.3,9.5-9.7l2.7-1.6
	l0.2-3.4l0.4-7.7l-3.2-1.9c-5.3-2.9-11-7.1-16.3-24.1l-0.2-0.5l-0.2-0.5c-3.7-7.1-8.8-9-18.9-12.8l-9-3.5l-0.7-0.3
	c-16.4-6.7-54.7-22.5-54.7-59.6c0-33.9,35.4-47.4,68.6-48.8c9.6-0.5,19.9,1.2,29,2.8c8.9,1.5,17.3,2.9,23.3,2.1l0.2,0l0.2,0
	c5-0.3,15.4-0.6,28.6-1c22.7-0.6,57.1-1.6,71.8-3.2l2.2-0.2l1.5-1.7c3.8-4.3,8.7-7.5,14.2-9.1C413,209.3,424.6,211.2,437.5,218
	L437.5,218z"/>
<path class="st2" d="M401.4,206.7c-6.6,1.9-12.4,5.7-16.9,10.9c-14.4,1.5-48.2,2.5-71.3,3.2c-13.3,0.4-23.8,0.7-28.8,1l-0.4,0
	l-0.4,0.1c-5.1,0.7-13.1-0.6-21.5-2c-9.4-1.6-20-3.4-30.2-2.8c-35.8,1.5-74.1,16.6-74.1,54.5c0,40.9,40.9,57.7,58.3,64.9l0.8,0.3
	l9.1,3.5c10.3,3.9,13.3,5.2,15.9,10.1c5.6,17.8,12,23.6,19.1,27.5c-0.1,1.5-0.2,3-0.2,4.6c-5,2.8-9,7-11.7,12
	c-2.6,5-3.9,10.6-3.9,16.5c0,5.5,1.1,11.1,3.4,16.7l0.5,1.2l0.8,1c7.6,10.3,11.7,17.8,17.3,28.1c3.8,7,8.6,15.8,15.6,27.5
	c12.9,21.6,21.8,86.6,24.3,111.3c-0.9,8.9-1.4,17.8-1.4,26.7c0,10,0.6,21.5,2.6,32.6c3.2,17.1,11.2,29.3,23.8,36.5
	c18.7,10.7,41.7,6.1,51,3.5c8.2,3.4,28.8,10.6,60.9,13.6c17.7,1.7,31.1-1.8,40-10.5c7.9-7.7,9.5-17,9.8-21.7l0.8-1.8
	c99.1-61.7,132.5-193,137.2-213.8c2.5-2.4,8.6-7.1,14.7-11.2c3.6-1,6.8-3.2,9-6.1c2.8-3.6,3.7-7.9,4-11.3c0.8-1.1,1.6-2.4,2.1-3.8
	c0.6-1.7,0.8-3.4,0.8-5.3c0-9.2-6.4-20.7-12.8-30c-0.8-4.6-3.3-8.5-5.3-11.5c-1-1.5-2.3-3.4-2.6-4.4c-2.8-8.4-11.5-13.5-15-15.3
	c-8.3-6.3-32.7-27.3-46.3-39.2c-0.6-2.1-1.5-5.8-2.1-9.5c0.5-3.6,0.8-7.1,0.8-10.3c0-12.5-3.7-22.4-11-29.5
	c-10.3-9.9-24.3-10.7-32.2-10.1c-12-10.4-39-28.1-45.4-31.7c-8.8-4.9-23.6-10.2-46-18.3l-3.9-1.4
	C425.9,205.4,412.9,203.3,401.4,206.7L401.4,206.7z M431.2,231.9l0.7,0.4l5.1,1.8c20.7,7.4,35.6,12.8,42.9,16.9
	c9.3,5.2,39.8,26.2,44,31.1l4,4.6l6-1.1c3.5-0.7,13.9-1.2,19.3,4c5.3,5.2,4.9,15.5,3.7,23.3l-0.3,1.7l0.3,1.7
	c0.6,3.9,2.4,13.6,4.8,18.3l0.9,1.8l1.5,1.4c1.6,1.4,39.7,34.9,50.5,42.7l0.9,0.6l1,0.5c2,0.9,4.4,2.7,5,3.6l-0.1-0.3
	c1.2,3.7,3.3,6.7,5.1,9.5c0.6,0.9,1.4,2.1,1.9,3l-0.6,3l2.7,3.7c3.8,5.3,7.5,11.6,9.3,15.9l-2.9,0.8l1.3,9.3c0,0.2,0,0.4,0,0.7l0,0
	L636,432c-8.8,5.8-19.9,14-23.3,19.6l-0.9,1.5l-0.4,1.8c-0.3,1.4-31,144.6-131,204.6l-2.9,1.8l-5.2,12.1c0,0,0.1,2.1,0.1,2.4v0.1
	c0,0.7-0.1,5.1-3.6,8.4c-4.2,3.9-12.2,5.4-23.1,4.4c-37.4-3.6-57.4-13.2-57.6-13.3l-4-2l-4.2,1.5c-0.2,0.1-22.7,7.9-37.7-0.7
	c-7-4-11.4-11.2-13.4-22c-1.7-9.5-2.2-19.7-2.2-28.6c0-14.3,1.3-25.4,1.4-25.6l0.1-1.2l-0.1-1.2c-0.9-9.3-9.4-91.2-27.3-121.1
	c-6.8-11.4-11.3-19.5-15.2-26.8c-5.5-10.2-10.1-18.4-17.8-29.1c-1-2.7-1.6-5.4-1.6-7.9s0.5-4.8,1.5-6.7c1.4-2.6,3.4-4.2,6.2-4.8
	l9.7-2.1l-1.5-9.9c0,0-0.3-1.9-0.3-4.6c0-1.1,0.1-2.3,0.2-3.6c0.6-1.5,0.9-3.2,0.9-4.8c0-1-0.1-2.1-0.4-3.3c-0.7-3.2-2.9-7.5-9-10.6
	l-1-0.5c-3.8-1.9-6.8-3.3-10.9-17l-0.3-0.9l-0.4-0.8c-6.4-12.9-16.2-16.6-27.5-20.9l-8.5-3.3l-0.9-0.3
	c-15.8-6.5-45.3-18.6-45.3-45.4c0-29.7,45-33.1,54-33.5c8-0.4,17,1.1,25.7,2.6c10.1,1.7,19.6,3.3,28,2.1l-0.8,0.1
	c4.7-0.3,15.6-0.6,28.1-1c36-1,66.7-2,78.2-3.9l5-0.8l2.4-4.3C400.8,230.4,408.7,219.7,431.2,231.9L431.2,231.9z"/>
<path class="st3" d="M394.5,229.7l-1.2,2.1l-2.3,0.4c-11.2,1.9-41.7,2.9-77.4,3.9c-12.2,0.3-22.7,0.6-27.7,0.9l0,0l-0.3,0
	c-7.5,1-16.5-0.5-26.1-2.1c-9-1.5-18.3-3.1-26.9-2.6c-28.7,1.2-59.5,12.1-59.5,39.2c0,30.7,33,44.2,48.8,50.7l0.9,0.4l8.6,3.3
	c11.1,4.2,19,7.2,24.5,18.1l0.2,0.4l0.1,0.4c4.5,15,8.4,17.9,13.8,20.6l1,0.5c3.3,1.6,5.3,3.9,6,6.8l0.2,1.9c0,0.9-0.2,1.8-0.6,2.9
	l-0.3,0.8l0,0.6l-0.3,4.2l0.4,5.5l0.7,4.5l-4.4,1c-4.4,1-7.9,3.6-10.1,7.7c-1.5,2.8-2.2,5.9-2.2,9.4c0,3.1,0.7,6.4,2,9.9l0.3,0.7
	l0.5,0.6c7.7,10.7,12.2,18.9,17.4,28.4c4,7.3,8.5,15.5,15.3,27c14,23.4,23.3,85.6,26.5,118.7l0,0.5l-0.1,0.5
	c0,0.1-1.4,11.5-1.4,26.3c0,11,0.8,21,2.3,29.6c2.4,12.5,7.7,21,16.2,25.9c17.3,9.9,41.5,1.5,42.5,1.1l1.9-0.7l1.8,0.9
	c0.2,0.1,20.9,10.2,59.5,13.9c12.8,1.2,22.1-0.8,27.6-5.9c5.1-4.7,5.5-10.8,5.5-12.6v-0.2l-0.1-1.3l3.9-9.1l1.3-0.8
	c102-61.2,133.3-206.8,133.6-208.3l0.2-0.8l0.4-0.7c1-1.7,5.2-6.9,21.5-17.8l4.9-3.3l-0.2-3.3l-0.1-1.1l-0.6-4.3l4.4-1.2l-2.6-6.1
	c-2.1-4.9-6-11.6-10-17l-1.2-1.7c0-0.1,0.6-2.8,0.6-2.8l-1.1-1.7l-2.1-3.3c-1.7-2.5-3.4-5.1-4.4-8.1l-0.9,0.3l0.9-0.4l-0.1-0.3
	l-4.2,1.6l4-2c-2-3.3-7.5-5.9-7.5-5.9c0,0-0.3-0.1-0.5-0.2l-0.4-0.3c-10.6-7.7-48.5-41-50.1-42.4l-0.7-0.6c-0.2-0.4-0.4-0.8-0.4-0.8
	c-1.4-2.8-3-9.2-4.3-16.7l-0.1-0.8c0.1-0.4,0.1-0.8,0.1-0.8c0.5-3.3,0.8-6.6,0.9-9.9c0-8.2-2.1-14.3-6.2-18.4
	c-8.6-8.4-23.7-5.6-24.4-5.5l-2.8,0.5l-1.8-2.1c-5-5.9-36.5-27.4-45.6-32.4c-7.7-4.3-22.9-9.7-43.8-17.3l-4.7-1.7l-0.3-0.2
	C406.8,212.2,396.3,226.7,394.5,229.7L394.5,229.7z M314,247.5c36.2-1,67.1-2,79-4l7.7-1.3l3.8-6.7c2.4-3.9,10.1-6,24,1.5l1.1,0.6
	l5.5,2c20.4,7.4,35.2,12.7,42.1,16.5c10.2,5.7,39.2,26,42.4,29.9l6.1,7.1l9.3-1.7c3.4-0.6,11.1-0.6,14.2,2.5
	c1.8,1.7,2.7,5.4,2.7,10.2c0,2.4-0.2,5.1-0.7,8l-0.4,2.6l0.4,2.6c0.9,5.2,2.7,14.7,5.3,19.9l1.4,2.8l2.4,2.1
	c1.6,1.4,39.9,35,50.9,43l1.3,1l1.5,0.7c1,0.5,2.2,1.3,2.6,1.7c1.5,3.5,3.3,6.6,5,9.1l0.6,0.9l-0.6,3.1l4.2,5.8c2,2.8,4,5.9,5.7,8.9
	l-1,0.3l1.6,11.4c-19.5,13.1-23.1,19-24.2,20.9l-1.4,2.4l-0.6,2.7c-0.3,1.4-30.7,142.3-128.3,200.8l-4.5,2.7l-6.4,15l0.2,3.6
	c0,0.1-0.1,2.5-1.8,4.2c-1.4,1.3-5.9,4.1-18.7,2.9c-35.9-3.4-55.4-12.7-55.6-12.7l-6.1-3l-6.5,2.3c-0.2,0.1-20.4,7-33-0.3
	c-5.5-3.1-9-9-10.7-18c-1.4-7.9-2.1-17.1-2.1-27.5c0-13.9,1.3-24.8,1.3-24.9l0.2-1.8l-0.2-1.8c-0.9-9.4-9.5-92.6-28.1-123.5
	c-5.2-8.7-10.3-17.6-15.1-26.6c-5-9.2-9.8-18-17.6-28.9c-0.7-1.9-1.1-3.8-1.1-5.3c0-1.6,0.3-3,0.9-4c0.6-1.1,1.2-1.6,2.3-1.8l15-3.2
	l-2.4-15.2l-0.2-3.7l0.2-2.7c0.6-1.9,1-3.8,1-5.7l-0.5-4.6c-1-4.3-3.9-10.4-12-14.4l-1-0.5c-2.6-1.3-4.5-2.2-7.9-13.6l-0.4-1.3
	l-0.6-1.3c-7.5-14.9-18.7-19.2-30.6-23.7l-8.4-3.3l-0.8-0.3c-15.6-6.4-41.7-17.1-41.7-40.1c0-24.5,40.4-27.4,48.5-27.8
	c7.4-0.4,16.1,1.1,24.5,2.5c10.1,1.7,19.6,3.2,28.5,2.2l0,0C290.6,248.2,301.4,247.9,314,247.5L314,247.5z M616.6,388.1
	C616.6,388.1,616.6,388.1,616.6,388.1L616.6,388.1z"/>
<path class="st3" d="M390.3,227.5c0,0,12.4-23,45.9-4.8c23.9,8.6,40.2,14.4,48.8,19.1c8.6,4.8,41.1,26.8,46.9,33.5
	c0,0,43.1-8.6,35.4,39.2c0,0,1.9,11.5,3.8,15.3c0,0,39.2,34.4,49.8,42.1c0,0,8.6,3.8,10.5,9.6c1.9,5.7,8.6,11.5,7.7,16.3
	c0,0,20.1,27.7,9.6,30.6c0,0,1.9,11.5-6.7,12.4c0,0-17.2,11.5-20.1,16.3c0,0-30.6,148.3-135.9,211.4l-2.9,6.7
	c0,0,1.9,27.7-38.3,23.9s-61.2-14.4-61.2-14.4s-55.5,20.1-65.1-30.6c-4.8-26.8-1-57.4-1-57.4s-8.6-88-25.8-116.7
	c-17.2-28.7-20.1-38.3-33.5-56.5c-6.7-16.3,0-31.6,13.4-34.4c0,0-1-5.7,0-12.4c0,0,2.9-3.8-2.9-6.7c-5.7-2.9-11.5-4.8-17.2-23.9
	c-5.7-11.5-14.4-12.4-30.6-19.1s-52.6-21-52.6-55.5c0-34.4,41.1-43.1,64.1-44c18.2-1,39.2,6.7,52.6,4.8
	C300.3,231.3,373,230.3,390.3,227.5L390.3,227.5z"/>
<path class="st1" d="M552,291.1c-9.6-10.6-23-19.1-20.1-15.8c0,0,43.1-8.6,35.4,39.2C567.3,314.5,561.5,301.7,552,291.1L552,291.1z"
	/>
<path class="st4" d="M232.9,255.7c-1.9,12.4,17.7,19.6,17.7,19.6c-10.1,9.3-23.6,9.9-23.9,11.5c-1,4.3,6.2,15.8,6.2,15.8
	c-20.1,7.7-12,24.4-12,24.4c-16.3-6.7-52.6-21-52.6-55.5c0-34.4,41.1-43.1,64.1-44c18.2-1,39.2,6.7,52.6,4.8
	C285,232.2,233.8,240.4,232.9,255.7L232.9,255.7z"/>
<path class="st1" d="M213.7,245.6c-7.2,7.7,3.8,24.7,3.8,29.2c0,11.5-22,11-22,11c6.7,14.8,15.8,15.3,15.8,15.3
	c-4.8,11-0.3,21.7-0.3,21.7c-17.8-8-42.8-22.8-42.8-51.3c0-34.4,41.1-43.1,64.1-44c15.4-0.8,32.8,4.6,45.9,5.1
	C278.3,232.5,228.2,230.2,213.7,245.6L213.7,245.6z"/>
<path class="st2" d="M182.2,262.4l-0.4,1.7c-1.5,5.9-5.7,21.5-10.8,25l2.2,3.1c5.5-3.8,9.3-15.9,12.3-27.2l0.4-1.7
	c1-3.5,9.6-14,14.9-19.8L198,241C196.5,242.6,183.7,256.8,182.2,262.4L182.2,262.4z M276,230.3l6.1,12.3c0.1,1.2,0.7,5.8,2.7,7.1
	l0,0.1c0,0.5-0.6,1.9-1,2.9c-0.9,2.1-2.1,4.9-2.1,7.5c0,0.9,0.1,1.7,0.4,2.6l0.2,0.5l0.5,0.1c2.2,0.4,8.1,1.6,10,2.7
	c0.4,0.6,2.4,3.9,4.1,7.3l0.2,0.4l0.5,0.1c1.4,0.2,5.3,1.4,5.9,3.6c0.4,1.2,1.2,4.1,1.2,6.4c0,0.6-0.1,1.2-0.2,1.7l1.8,0.6
	c0.2-0.8,0.3-1.5,0.3-2.3c0-3-1.1-6.4-1.3-6.9c-0.9-3.3-5.5-4.5-7-4.8c-1.9-3.7-4.1-7.3-4.1-7.3l-0.1-0.2l-0.2-0.1
	c-2.1-1.3-8.1-2.5-10.2-2.9c-0.1-0.5-0.2-0.9-0.2-1.4c0-2.3,1.1-4.8,1.9-6.8c0.6-1.4,1.2-2.7,1.2-3.7c0-0.7-0.2-1.2-0.9-1.5
	c-0.9-0.4-1.7-3.4-1.9-5.9l0-0.2l-6.3-12.6L276,230.3L276,230.3z"/>
<path class="st2" d="M219.5,274c-3.5,1.5-8.3,8.6-8.5,8.9c-1.9,3.8-2.8,4.7-6.5,7.4l-0.9,0.6c-3.5,2.2-8.2,3-8.2,3
	c-4.7,0-12.3,2.8-12.6,2.9l0.7,1.8c0.1,0,7.5-2.8,12.1-2.8c0.4,0,5.2-0.9,9.1-3.3l1.1-0.7c3.9-2.9,5-4,7-8c1.2-1.8,5.1-7.1,7.7-8.2
	c3.1-1.6,8.6-4.1,10.5-3.8l13.6,3.6c0.1,2,1.1,7,7.5,7.9c0.3,0,19.8,0,27.8,1c0.2,0,13.5,0,16.7,0.5c0,0,7.6,1.4,15.2,3.8l0.1,0
	l0.1,0c0.1,0,8,0.5,14.9,2.8l2.7,2.3l1.2-1.5l-3-2.5l-0.2-0.1c-7-2.3-14.7-2.9-15.4-2.9c-5-1.5-10.1-2.8-15.3-3.8
	c-3.4-0.5-16.4-0.5-16.9-0.5c-8-0.9-26.9-1-27.7-1c-5.4-0.7-5.7-5.3-5.7-6.4l0-0.2l0-0.8l-0.8-0.2l-14.4-3.8
	C228,269.5,220.4,273.5,219.5,274L219.5,274z"/>
<path class="st4" d="M405.1,227.5c0,0-6.7,3.3-8.1,13.9c0,0,13.4-7.2,13.9,0.5c0.5,7.7,0,18.2-7.7,14.8c0,0-0.5,17.2-8.6,11.5
	c0,0-4.3,3.8-9.6,3.3c0,0,4.8,17.7,13.9,24.4c0,0,33-14.8,36.8-32.5C439.5,245.6,432.8,224.6,405.1,227.5L405.1,227.5z"/>
<path class="st1" d="M407.5,227.5c0,0,13.4,5.7,16.7,12.4c0,0,6.2,11,3.8,13.9c-2.4,2.9-5.7,8.1-8.1,8.1c0,0,3.8,16.7-12,9.6
	c0,0-5.3,8.6-17.7,8.1c0,0-1,12.9,10.5,18.2c11.5,5.3,23,8.6,32.5-1.4c0,0,3.8-13.9,8.1-19.1c4.3-5.3,9.6-17.2,6.7-25.8
	C448.1,251.4,439.1,216,407.5,227.5L407.5,227.5z"/>
<path class="st1" d="M326.6,294.9c0,0,20.1,0,23.4-5.3c0,0,5.7-6.2,16.3,3.3c0,0,5.3-16.3,17.7-1c0,0,5.7-6.2,8.1-2.9l-5.3-11
	c0,0,2.4-12.9-30.1-5.3c0,0-10,5.3-16.7,13.9C340,286.8,332.8,292,326.6,294.9L326.6,294.9z M308.5,305.4c0,0-6.2,29.2-8.1,33.5
	c0,0,12.9-5.3,17.2-13.4c0,0,1.4,8.6,4.8,10h2.9c0,0,14.4,0,19.1,1.9c0,0,12.9,5.7,13.9,8.1l9.6-10l8.1-8.1l9.1-6.2l8.6-2.9
	c0,0-1.4,7.2,1,8.1c2.4,1-6.2,7.2-2.9,10c0,0-8.1,23.4,12,16.3c0,0,14.3,22,13.4,30.6l-1,3.3c0,0-8.1-17.7-16.7-21.1
	c0,0,2.9,27.3,1.4,33.5l-11.5-20.1l-8.1-1c0,0,2.4,26.3,0,30.1h-6.2c0,0-15.8-25.8-27.3-32.5c0,0-23.9-0.5-32.1-3.8
	c0,0-28.2-2.9-36.4-1c0,0-11-1.9-3.8-13.9c0,0,11-14.8,16.3-30.6C291.7,326.5,303.2,306.9,308.5,305.4z M317.1,519.3
	c0,0-7.2-10-12.4-12.4c0,0,1,5.7,0.5,12c0,0-7.2-25.4-14.4-37.3c-3.3-5.6-12-27.3-18.2-32.1v-6.7c0,0,22,12.9,26.3,21
	C298.9,463.8,316.1,493.9,317.1,519.3L317.1,519.3z M442.4,279.1c0,0,8.6-1.9,6.2,7.2c0,0-8.1,20.1-5.7,24.4l6.8-3.2
	c0,0-4,23.8,6.1,35.7l-5.3-2.4c0,0-14.3-6.2-9.6-25.4c0,0-4.8-1-3.8-7.7s0.5-12.4,0.5-16.7C437.6,291.1,439.1,280.6,442.4,279.1
	L442.4,279.1z"/>
<path class="st2" d="M405.9,225.2c-1,0.4-4,3.2-3.7,4.2c0.4,1,4-0.2,4.9-0.6c15.3-5.4,28.4-0.2,35.9,14.4c6,11.6,2.9,23.2-4.5,33.1
	c-2.5,3.3-2.6,4.6-4.3,7.7c-1.9,3.3-3.8,4.8-4.8,10c-1.5,8.4-15.5,8.7-21.6,5.5s-9.5-7.5-10.9-8.8c-4.3-5.7-10.2-17.9-10.3-18.1
	l-0.2-0.4l-0.4-0.3c-10.2-7.2-34.2,0.8-35.2,1.2l-0.2,0.1l-0.1,0.1c-5.1,2.8-11,11.9-12.4,14l-2.4,1.1c-7.3,3.2-22.5,9.8-30.5,16.2
	c-9.4,7.4-23.9,40-24.5,41.4l0,0.1l0,0.1c-1.1,3.6-5.6,9.7-7.3,11.8l-0.1,0.1l-0.1,0.2c-1.1,2.2-1.7,4.2-1.7,6.1
	c0,1.2,0.2,2.4,0.7,3.5c1.9,4.7,7.2,6.4,7.4,6.4c1,0.3,2.1-0.2,2.4-1.2c0.3-1-0.2-2.1-1.2-2.4c0,0-3.8-1.3-5-4.3
	c-0.3-0.7-0.4-1.3-0.4-2c0-1.3,0.4-2.7,1.2-4.2c0.9-1.1,6.4-8.1,7.8-12.9l-0.1,0.2c0.1-0.3,14.7-33.1,23.4-39.9
	c7.6-6,22.5-12.5,29.6-15.7l3.5-1.6l0.3-0.5c1.8-2.9,7.2-10.9,11.1-13.1c6.5-2.2,23.9-6.4,31.2-1.8c0.7,1.5,2.7,9.8,6.2,19.2
	l0.8-2.7l0.3,0.3c0.3,0.3,5.5,7.6,12.8,11.5c8.4,4.5,28.3,3.6,33.5-5.3c2.2-3.8,2.2-8.7,3.3-11.5c1.3-3.1,1.2-5.5,3.4-8.4
	c8.3-11,9.2-23.6,2.6-36.5C438.1,225.2,423,219.1,405.9,225.2L405.9,225.2z"/>
<path class="st1" d="M452.9,245.6l8.6-2.9c0,0,0,31.1-3.8,37.8C453.9,287.3,455.3,252.8,452.9,245.6L452.9,245.6z"/>
<path class="st2" d="M444.5,264.1c-3.6,0.2-6.5,0.5-7.3,2.2c-0.5,1-3.6,2-5.5,2.4l-0.1,0l-3,1.5c-2.7,1.4-8.2,5.1-9,5.7
	c-2.2,0.1-3.8,0.7-5.8,1.7l-3.7,1.6c-4.5,1.8-10.5,1.4-10.6,1.4l-0.4,0l-5.6,5.1l1.3,1.4l5-4.5c1.4,0.1,6.7,0.2,11-1.5l3.8-1.7
	c2.1-1,3.4-1.6,5.4-1.6h0.3l0.2-0.2c0.1,0,6.2-4.3,9-5.7c0,0,2.6-1.3,2.8-1.4c1.1-0.2,5.7-1.2,6.7-3.4c0.4-0.8,4.1-1,5.7-1.1
	l2.8-0.3l-0.6-1.8L444.5,264.1L444.5,264.1z"/>
<path class="st4" d="M543.8,307.3c0,0-6.7-3.8-12.4-6.2c-2.9-1,0.5,4.3,2.4,6.7s11.5,8.6-7.2,29.7c0,0,31.6-0.5,7.2,10
	c0,0,4.3,2.9,6.2,5.7c1.9,2.9,0.5,6.7-2.9,8.1l19.6,10l15.8,2.9l-2.4-14.4l-2.9-8.1l-8.1-16.7l-5.3-9.6L543.8,307.3L543.8,307.3z"/>
<path class="st2" d="M449.7,255.1c0.1,0.1,6.3,13.9,27.2,7.8c4,1.1,10.1,3.1,11.4,4.1l1.1,0.9c1.8,1.6,4.6,3.9,10.7,5.9l7.1,2
	c3.3,0.8,5.9,1.5,9,3.2l5.3,2.5c1.9,0.8,3.2,1.3,4.5,2.6l1.4-1.4c-1.5-1.5-3.1-2.2-5.1-3l-5.2-2.4c-3.4-1.8-6.2-2.5-9.5-3.4l-7-2
	c-5.7-1.9-8.2-4-10-5.6l-1.2-1c-2-1.5-11.2-4.2-12.3-4.5l-0.3-0.1l-0.3,0.1c-19.4,5.9-24.9-6.1-25.2-6.6L449.7,255.1L449.7,255.1z"
	/>
<path class="st2" d="M522.3,272.6c0.1,0.4,1.6,10.4,8.9,17.8c5.2,5.2,7.8,10,10.8,15.6l3.4,6.2l4.9,8.7c2.5,4.6,4.7,8.5,7.1,11.9
	c0.4,1.1,7.1,17.9,11,22.9c1.2,5,3.3,14.8,3.3,17.3h1.9c0-3.4-3.2-17.3-3.4-17.9l0-0.2l-0.1-0.2c-3.7-4.6-10.8-22.5-10.9-22.7l0-0.1
	l-0.1-0.1c-2.3-3.2-4.5-7.2-7-11.8l-4.9-8.7l-3.4-6.1c-2.9-5.5-5.7-10.7-11.1-16.1c-6.8-6.9-8.3-16.6-8.3-16.7L522.3,272.6
	L522.3,272.6z M399.1,317.8c-1.3-0.2-8.4-1-16.5,3.5c-0.5,0.4-9.3,7.4-11.7,10.3c-2.7,3.2-11.5,12.4-14,13.6l0.9,1.7
	c3.2-1.6,12.6-11.6,14.7-14.1c2.3-2.8,11.2-9.8,11.3-9.9c8.1-4.5,15.4-3.2,15.5-3.2l0.3,0.1l0.3-0.2c10-5.7,21.5-14.8,21.6-14.9
	l-1.2-1.5C420.2,303.3,408.9,312.2,399.1,317.8L399.1,317.8z"/>
<path class="st2" d="M311.4,340.6c-8,1.1-20.7,16.4-22.1,18.2c-0.7,0.8-0.5,2,0.3,2.7c0.8,0.7,2,0.5,2.7-0.3c5.3-6.6,15.5-17,20-17
	h0.6l0.5-0.3c0.8-0.5,18.8-12.9,37.5-0.4c18.2,12.1,25.3,28.8,27.5,35.4l0.4,1.2l8.9,1c2.3,3.4,12.1,19,15,32.6
	c0.2,1,1.2,1.7,2.3,1.5c1-0.2,1.7-1.2,1.5-2.3c-3.4-16-15.6-33.9-16.1-34.7l-0.5-0.7l-8.3-0.9c-2.7-7.6-10.3-24-28.6-36.2
	C333,326.8,313.2,339.3,311.4,340.6L311.4,340.6z M449,305.6c-0.1,0.1-12.9,9.1-9.5,22.6c2.2,8.3,5.2,9.9,7.7,11.2
	c1.4,0.8,2.6,1.4,3.4,3.3l1.8-0.7c-1.1-2.5-2.7-3.4-4.2-4.2c-2.2-1.2-4.8-2.5-6.7-10c-0.4-1.3-0.5-2.7-0.5-4.1
	c0-8.7,7.1-14.7,8.8-16.1l8.6,3.6l0.7-1.8l-9.6-4L449,305.6L449,305.6z"/>
<path class="st4" d="M284.8,364.7l4-1.4c0,0,19.1,8.6,25.4,1.4c0,0,8.1,4.3,10,4.3c0,0,13.4-7.7,6.7-18.2c0,0,37.8-1.4,40.7,45.4
	l-5.7,4.8l-6.7-7.7l-6.2-6.7l-8.6-0.5l-8.1,1.9l-7.7-1.4l-3.8-4.3l-7.2-3.3l-11.5-3.8l-11.5-0.5l-9.6-0.5l-4.2-3.7L284.8,364.7
	L284.8,364.7z"/>
<path class="st2" d="M447.8,307l2.4,6.7l3.6-1.3l-2.4-6.7L447.8,307z M276.5,369.7c-3.1,0.9-6.3,1.4-9.5,1.3l-0.4,5.7
	c3.9,0.2,7.9-0.3,11.6-1.5c4.3-1.4,8-3.6,10.8-6.6l-4.2-3.9C282.7,367,279.9,368.6,276.5,369.7z"/>
<path class="st2" d="M279.6,374c4.7,3.4,13,3.1,19.7,2.9l4.4-0.1c5.1,0,14.5,4.7,17.7,6.5l1.9-3.3c-0.5-0.3-12.5-6.9-19.6-6.9
	l-4.6,0.1c-6.1,0.2-13.6,0.5-17.3-2.1L279.6,374L279.6,374z"/>
<path class="st1" d="M431.4,371.6c0,0,5.1,7.7,9.6,9.6c4.5,1.9,8.3-13.4,8.3-13.4s1.9,13.4,5.1,15.3c3.2,1.9,14.7-5.1,23-3.2
	c0,0-5.7,8.3-2.9,12.6c2.9,4.3-3.8-5.3-22-1.4c0,0-8.6-6.2-19.1-0.5l-3.8-10l-2.4-3.8L431.4,371.6L431.4,371.6z"/>
<path class="st2" d="M350.1,360.5c0,0-43.1,18.7-37.8,31.6c3.3,6.7,13.4,8.1,30.6-2.4c11-1.9,14.8,2.4,13.9,21
	c-1,18.7,1.4,35.4-6.7,42.1c-6.7,6.2-11,19.1-5.7,26.8c0,0-3.8,12.4,5.3,21c0,0-7.7,12,1.9,19.6c0,0,0,20.6,20.6,22
	c0,0-7.7,28.2,31.1,71.8c0,0,19.1,31.1,54.5,49.7c0,0,10.5,15.8,25.3,11.5h10.5c0,0,110-64.6,134.9-217.2l2.4-10.5
	c0,0,12-4.8,17.7-10c0,0,5.7-5.7-4.8-13.4c0,0-0.5-6.7-4.8-8.1c0,0,1-6.2-2.9-8.1c0,0,1.4-12.4-11.5-12.9c0,0-9.1-7.2-18.2-2.9
	c0,0-21-20.6-34.4-6.7c0,0-39.7-24.4-73.2,0c0,0-12.4-6.7-23-5.3c0,0-7.7,4.8-9.1,22.5c0,0-9.6,3.3-20.1,1c0,0-16.3,1.9-23.9,1.4
	l-6.2-0.5c0,0,1,10-10,8.1l-7.7-4.8c0,0-14.4-2.9-21.5-0.5c0,0,0.5-6.7-1.4-10c0,0-8.6-3.8-12-1.9c0,0-8.1-20.6-27.3-8.6l-4.3-9.1
	c0,0,2.4-3.8,10-7.7C342.4,370,354.4,364.8,350.1,360.5L350.1,360.5z"/>
<path class="st2" d="M339.5,432.9l3,2.3c0.1-0.1,10-12.8,18.8-19.8l-2.4-3C349.8,419.8,339.9,432.4,339.5,432.9L339.5,432.9z
	 M402.1,364.9c0.2,0.2,17.7,24,16.4,41.8l3.8,0.3c1.5-19.1-16.4-43.3-17.1-44.3L402.1,364.9z M582.1,372.4l-2.4,1l-3.4-4.8
	c0,0-2.4,5.7-11,2.9s-16.3-8.6-24.4-8.6c0,0-5.3,6.7,30.6,16.3C571.6,379.1,583.5,378.1,582.1,372.4L582.1,372.4z M418.8,375.8
	c0.1,0,6.2,0.5,8.6,3.9c1.1,1.5,1.3,3.3,0.7,5.7l-0.1,0.4l0.1,0.4c0,0.2,1.1,6,6.9,10.7c3,2.5,2.9,3.3,2.5,5l-0.3,2.6h3.8l0.3-1.9
	c0.2-0.7,0.3-1.4,0.3-2.2c0-1.9-0.8-3.9-4.1-6.6c-4.3-3.5-5.4-7.7-5.5-8.2c0.2-0.9,0.4-1.9,0.4-2.7c0-2.1-0.6-3.9-1.7-5.5
	c-3.5-4.9-11.1-5.5-11.4-5.5L418.8,375.8L418.8,375.8z"/>
<path class="st1" d="M515.6,376.7c0,0-2.9-3.8,4.8-8.6c7.7-4.8,18.2-6.7,18.2-6.7s5.7,1.9,9.6,7.7c0,0,17.2,6.7,21.1,8.6
	c0,0,2.6,0.3,2.9,7.7l-11.5-2.9l-25.8-6.7L515.6,376.7L515.6,376.7z M501.7,626.4c0,0-34.9,12.9-70.3,10.5
	c0,0,114.8-120.1,118.2-169.8C549.6,467.1,557.7,581.9,501.7,626.4L501.7,626.4z"/>
<path class="st2" d="M435.2,358.2c0,0.4,1.2,10-7.7,16.3l1.1,1.6c9.9-7,8.6-17.7,8.5-18.1L435.2,358.2L435.2,358.2z M494.6,386.6
	l-2.1,1.4l-0.4,2.6c-8.6,61.9-25.8,103.8-41.6,136.7c-18.9,39.4-51.9,90.3-66,112.1l-5.2,8.1l-0.1,0.2c-1.2,2.3-4.8,9.3,0.2,13.7
	c2,1.7,7.2,6.4,31.6-10.1c12.1-6.8,24-15.3,35.4-25.1c2.8-2.3,71.8-59.7,107.7-158.7c5.8-17.1,23.7-72.7,23.8-73.2l1.4-4.3l-3.9-2.3
	C532.5,361.9,496.1,385.6,494.6,386.6L494.6,386.6z M565.5,395.4c-4.3,13.5-17.5,54.3-22.3,68.5C508.4,559.6,439.6,617,438.9,617.5
	c-11,9.5-22.4,17.5-33.9,24l-0.2,0.1l-0.2,0.1c-4.1,2.8-8.5,5.3-12.9,7.6c1.2-1.8,2.4-3.7,2.4-3.7c14.2-21.9,47.6-73.3,66.8-113.4
	c15.9-33.2,33.3-75.4,42.2-137.3C510.2,391,535.5,379.5,565.5,395.4L565.5,395.4z"/>
<path class="st4" d="M326.7,597.1c0,0,15.2,30.3,29.1,19.3c0,0-27.7,37.8-2.9,34c0,0-5.3,23,2.4,25.4c7.7,2.4,25.4,5.3,42.6-1
	c0,0-46.9,23-70.3-9.6c-9.1-14.4-8.6-58.8-8.6-58.8L326.7,597.1L326.7,597.1z"/>
<path class="st2" d="M432.9,389.7l0.7,1.8c0.1,0,5.6-2.3,9.7-2.3c2,0,3.1,0.7,4.4,1.4c1.3,0.7,2.6,1.5,4.7,1.5l4.1-0.4
	c4.1-0.5,9.1-1.2,12.7,0.7l0.9-1.7c-4.1-2.2-9.7-1.5-13.9-1l-3.8,0.4c-1.6,0-2.6-0.6-3.8-1.2c-1.3-0.8-2.8-1.6-5.3-1.6
	C438.9,387.2,433.2,389.6,432.9,389.7z M353.7,579.6c-0.6,0.1-14,3.5-17.2,11.7l-3,2.2l-7.8,2l-0.2,0.3c0,0.1-3.3,5.1-6.4,7.4
	c-1.8,1.3-3.9,2.1-6.1,2.2l0,1.9c0.1,0,3.7,0,7.3-2.6c3-2.2,5.9-6.4,6.7-7.6l7.5-1.9l3.7-2.7l0.1-0.3c2.6-7.3,15-10.6,15.9-10.8
	c4.7,0.4,9.1,2.2,10.3,2.7c2.4,4.4,5.3,8.5,8.6,12.3l0.5,0.6l0.7-0.4c1.8-1.1,7.5-1.3,9.6-1.3v-1.9c-0.7,0-6.8,0.1-9.8,1.2
	c-3.1-3.6-5.8-7.6-8-11.7l-0.2-0.3l-0.3-0.1c-0.2-0.1-5.5-2.5-11.3-3l-0.2,0L353.7,579.6L353.7,579.6z"/>
<path class="st1" d="M478.8,640.3c0,0-17.2,4.8-21,8.1c0,0-1.9,12.4,1.4,16.7c0,0,12,14.4,29.2,9.6c0,0-13.4-10-10.1-15.8
	C478.3,659,483.1,648.9,478.8,640.3z"/>
<path class="st2" d="M275.9,377.2l3.3,11.5c0,0,12.4-4.3,22.5-2.4C301.8,386.3,298.4,382,275.9,377.2z"/>
<path class="st3" d="M497.7,391.4c0,0,34.4-23,74.6,1.3c0,0-17.9,55.9-23.8,73C512.8,564.3,442.5,622,442.5,622
	c-10.8,9.3-22.4,17.6-34.7,24.6c0,0-33.2,22.3-23.6,3.8c7.7-12.1,49.3-74.4,71.4-120.6C470.3,499.2,488.8,455.8,497.7,391.4
	L497.7,391.4z"/>
<path class="st4" d="M497.7,391.4c0,0,34.4-23,74.6,1.3c0,0-17.9,55.9-23.8,73l-0.9,2.4c-0.7,2-7.7-4.3-12.5,11.9
	c-4.8,16.3-29.2,38.3-29.2,38.3c16.3-31.1,6.7-41.6,6.7-41.6c-11-2.9-30.6,40.7-30.6,40.7C466.3,554.7,408,627,412.3,630.3
	c6.2,4.8,44.4-21.2,38.7-15.9c-2.7,2.6-5.5,5.1-8.4,7.6c-10.8,9.3-22.4,17.6-34.7,24.6c0,0-33.2,22.3-23.6,3.8
	c7.7-12.1,49.3-74.4,71.4-120.6C470.3,499.2,488.8,455.8,497.7,391.4L497.7,391.4z"/>
<path class="st1" d="M497.7,391.4c0,0,34.4-23,74.6,1.3c0,0-2.8,8.8-6.6,20.4c-0.4,1.1-5.2-7.6-25.3-7.2
	c-16.3,7.7-23.9,57.4-23.9,57.4l-3.8-1.4l2.4-24.4l-7.7-1.4c-7.7,36.4-79.4,144.5-79.4,144.5c10.1-17,20-34.8,27.6-50.7
	C470.3,499.2,488.8,455.8,497.7,391.4L497.7,391.4z"/>
<path class="st2" d="M261.1,430.8c0,0,37.8,16.7,44,44c0,0-12.9-24.9-32.5-25.4L261.1,430.8L261.1,430.8z M568.1,434.3l0.4-0.1
	c-10.7,1.9-19.8,25-19.8,42.5c-1.4,48.1-39.6,125.3-53.9,146.5c-22.1,32.7-23.5,40.2-18.3,45.3c7.6,7.6,16.7,2.9,38.5-14.3l0.2-0.1
	l0.2-0.1C620.4,559.8,627.7,444.6,628,439.7l0.3-5.3l-5-1.5C601.2,426.3,569.4,434,568.1,434.3z M614.1,444.6
	c-2.9,24-19.6,120.4-107.6,199.2c-7.7,6-12.7,9.6-16.1,11.7c2.5-4.7,7.1-12.4,15.4-24.8c15.4-22.8,54.7-102.1,56.2-153.8
	c0-14.1,6.7-27.4,9.7-29.7C574.3,446.6,596.7,441.6,614.1,444.6z"/>
<path class="st1" d="M273.5,393c0,0,6.2,26.3,24.9,17.7c0,0,0.5,29.7,15.8,25.4c0,0-12,10.5-8.1,24.9c0,0-14.8-19.1-22.5-23.9
	C275.9,432.2,256.8,412.1,273.5,393L273.5,393z"/>
<path class="st3" d="M569.6,440.8c0,0,31.1-7.7,51.7-1.4c0,0-6.2,116.2-110.5,209.5c-24.9,19.6-27.3,17.2-29.7,14.8
	c-2.4-2.4,5.3-16.3,19.1-36.8c13.9-20.6,53.6-99,55-150.2C555.3,459.5,564.4,441.8,569.6,440.8L569.6,440.8z"/>
<path class="st4" d="M569.6,440.8c0,0,31.1-7.7,51.7-1.4c0,0-2.4,44.2-28.6,100c-0.7,1.5-5.3-3.8-6.8-0.5
	c-2.9,10.5-17.2,29.2-17.2,29.2c6.2-15.8,13.4-47.8,13.4-47.8l-7.7-1.4c0,0-25.4,71.3-72.2,129.6c-3.2,4,8.6,0.5,8.6,0.5
	c-24.9,19.6-27.3,17.2-29.7,14.8c-2.4-2.4,5.3-16.3,19.1-36.8c13.9-20.6,53.6-99,55-150.2C555.3,459.5,564.4,441.8,569.6,440.8
	L569.6,440.8z"/>
<path class="st1" d="M569.6,440.8c0,0,31.1-7.7,51.7-1.4c0,0-0.4,8.2-3,21.9c-0.1,0.5-4.1-2.9-7-0.9c-2.9,2.1-4.8,9.6-4.8,9.6
	l-7.2-2.4c0,0,10-33-12-15.8c-3.8,11-1.4,30.1-1.4,30.1s-17.2-1.4-20.6,14.8c-23,103.3-74.8,145.1-74.8,145.1
	c2.7-4.4,6-9.5,9.7-14.9c13.9-20.6,53.6-99,55-150.2C555.3,459.5,564.4,441.8,569.6,440.8L569.6,440.8z"/>
<path class="st2" d="M360.6,534.7c4.7,27-7.6,44.1-7.7,44.3l1.5,1.1c0.5-0.7,12.8-17.9,8-45.7L360.6,534.7L360.6,534.7z
	 M323.3,516.9c0,0,5.7,7.2,6.7,14.4c1,7.2,0,22.5-7.2,16.3c-1.9-7.2,1.9-13.9-0.5-22.5C319.9,516.4,321.8,517.4,323.3,516.9
	L323.3,516.9z M321.8,562.3c0,0,5.7,14.8,4.3,23c-1.4,8.1-2.4,12.4-6.2,15.8l-3.8-10c0,0,5.7-4.3,4.8-12
	C319.9,571.4,316.1,558.5,321.8,562.3L321.8,562.3z"/>
<path class="st1" d="M570.1,379.6c0,0,12.9-13.9,31.6,1.9c0,0,10.1-3.8,15.8-1.9c0,0,2.9-4.3,3.3-7.7c0,0,5.3,0,9.1,10.5
	c0,0,10.1,5.3,8.6,18.2c0,0,18.7,21,10.1,27.7c0,0,1.9,6.2,0,9.1l-6.7,3.3c0,0-1-8.6-4.3-11c0,0-0.5-6.7-4.8-7.7c0,0-1-8.1-3.8-8.1
	c0,0-0.5-8.6-6.7-11c0,0-5.7-12-16.3-0.5l-14.3-6.2l0.5-5.7l7.7,3.3l4.8-3.8c0,0-16.3,0-11.5-5.3c0,0-8.6-8.1-21.1,0.5L570.1,379.6
	L570.1,379.6z"/>
<path class="st2" d="M401.3,676.2c0,0-10,11-13.9,12.4c-3.8,1.4-22.5,1.4-29.2-1.4C358.2,687.2,400.3,672.8,401.3,676.2z"/>
<path class="st3" d="M364.9,449.9c0,0-23,1-18.7,28.7c0,0-1.9,14.4,5.7,20.6c0,0-7.2,13.4,2.9,19.6c0,0-2.9,11,20.6,20.1
	c0,0,1.9-18.2-2.4-22c0,0,1.4-12-5.7-13.9c0,0,1.4-7.2-1-10c0,0,2.9-4.8,1.4-6.2h6.2c0,0,3.3-14.4-6.7-18.7c0,0-2.4-5.3-1-9.1
	C367.8,455.2,364.9,449.9,364.9,449.9L364.9,449.9z"/>
<path class="st1" d="M353.9,453.3c0,0-6.7,17.7,1.9,21c0,0-11,12.9-1.9,23.4c0,0-0.5,17.2,5.7,20.1c0,0,4.3,13.4,13.4,20.6
	c0,0-14.4,0.5-20.1-19.1c0,0-10.5-9.1-1-20.1c0,0-10-3.8-6.2-18.2C345.8,481,339.1,460.9,353.9,453.3L353.9,453.3z"/>
<path class="st2" d="M356.3,450.6c0.3,1.5,3,15.1,4.9,18.1l1.6-1.1c-1.5-2.2-3.9-13.3-4.6-17.4L356.3,450.6z"/>
<path class="st2" d="M355.1,473.6c-0.3,0.2-9.3,8.4-9.3,8.4c7.9-0.5,14.4,1.4,14.5,1.4l0.5-1.8c-0.2-0.1-5.2-1.5-11.8-1.5l7.5-5
	l0.1-0.2c4.3-8.1,10-5.9,10.3-5.8l0.7-1.8C367.6,467.2,360.3,464.2,355.1,473.6L355.1,473.6z"/>
<path class="st1" d="M429,677.6c0,0,20.1,4.8,30.6-1.9c0,0,1,6.7,7.7,3.8l-1,6.2C466.3,685.8,427.6,698.7,429,677.6L429,677.6z"/>
<path class="st2" d="M366.3,479.4c0.2,0.1,5.2,3.1,10.3,1.5l-0.5-1.8c-4.3,1.3-8.8-1.3-8.8-1.3L366.3,479.4L366.3,479.4z
	 M470.4,674.5c-0.9,1.4-4.7,7.4-5,10.5c-2,0.5-8.5,2-12.3,1.2l-0.4,1.9c5,1,13.5-1.3,13.8-1.5l0.9-0.2l-0.2-0.9
	c-0.3-1.2,2.2-6.1,4.6-9.8l7.5-7.5l-1.4-1.3L470.4,674.5L470.4,674.5z M359.1,478.1c0,7.3,3.2,12,5.2,14.1
	c-8.4,1.3-15.1,7.4-15.4,7.6l1.3,1.4c0.1-0.1,7.5-6.9,16.1-7.4l2.6-0.1l-2-1.6c-0.4-0.3-9.9-7.9-4-23.8l-1.8-0.7
	C359.7,471.7,359.1,475.1,359.1,478.1L359.1,478.1z M367.8,516.4l0.2,0c-4-1-14.8,1.8-15.3,1.9l0.5,1.8c3-0.8,11.4-2.6,14.4-1.9
	l0.1,0h0.1c0.2,0,4.2,0,8.3-3.6l-1.3-1.4C371.3,516.3,367.8,516.4,367.8,516.4L367.8,516.4z"/>
<path class="st2" d="M363.4,508.1c0,3.7,1.8,7.4,3.4,9.6c1,16.7,7.6,23.9,7.9,24.2l1.4-1.3c-0.1-0.1-6.5-7.2-7.4-23.3l0-0.3
	l-0.2-0.2c-0.3-0.4-7-9.4-0.2-14.9l-1.2-1.5C364.4,502.6,363.4,505.4,363.4,508.1z"/>
<path class="st1" d="M319,606.3c0,0,5.3,14.8,19.6,22.5c0,0-20.6,33,4.3,30.1c0,0-8.1,35.4,57.4,15.3c0,0-36.4,20.1-58.8,10
	C319,674.3,312.3,645.6,319,606.3z M393.6,461.4c0,0-2.9,7.7-7.2,10.5c0,0-1.9,20.1,0.5,25.8c0,0-6.2,17.7,5.3,23
	c3.8,1.4,3.8-1,8.1,1c4.3,1.9,4.3-11.5,3.3-14.8c-1-3.3,2.4-2.4,5.7-9.6s-1-19.1-2.9-20.6c0,0,6.2-4.8,5.3-11.5
	c-1-6.7-10.5-3.8-13.4-2.4l-3.3-1.9L393.6,461.4z"/>
<path class="st2" d="M397,464.8c-0.5,0.2-0.7,0.8-0.5,1.3s0.8,0.7,1.3,0.5l0,0c0,0,2.6-1.2,4.2-0.1c1.1,0.7,1.6,2.2,1.6,4.5
	c0,0.5,0.4,1,1,1c0.5,0,1-0.4,1-1c0-3-0.8-5.1-2.5-6.1C400.5,463.2,397.2,464.8,397,464.8z M394.1,470.4c-0.1,2.1-0.3,12.9,2.9,16.6
	c1.3,1.5,0,6.6-1,10.3c-0.6,2.4-1.2,4.6-1.4,6.5c-0.1,1.1,0.7,2,1.7,2.1c1.1,0.1,2-0.7,2.1-1.7c0.1-1.6,0.7-3.7,1.3-5.9
	c1.4-5.3,2.8-10.7,0.2-13.7c-1.6-1.9-2.1-9.3-1.9-14c0-1.1-0.8-1.9-1.8-2C395,468.5,394.1,469.3,394.1,470.4L394.1,470.4z"/>
<path class="st3" d="M630.9,447.5v-12c0,0-7.2-2.4-5.3-7.2c0,0-6.7,1.4-7.7-5.7c0,0-2.4,0.5-8.1-2.9l1.9-2.9c0,0-2.9,1-6.7-1
	c0,0-1-14.3,2.4-18.2c0,0,23.9-12.4,37.3,36.8C644.8,434.6,640.9,446.1,630.9,447.5z"/>
<path class="st1" d="M423.2,428.3c-3,5.1-6.7,10.7-7.9,11.9l1.1-0.9l-6.8,5.1l3.4,7.9c1.9,3.4,5.5,11.9,3.9,16.7l-0.8,2.6l0.7,2.7
	c1.5,5.8,3.5,22.6-4.3,30.7l-3.2,3.3l0.5,4.5c0.8,7-0.3,18-3.9,18.6l-7.7,1.2l-0.3,7.8c0,1-1,24.1,4.8,40.4l6.7,18.9l10.5-17.1
	c2.2-3.5,53.3-87.4,59.7-134.8l1-7.3l-7-2.9c0,0-4.3-1.8-5.1-5.5l-1.9-8.9l-9,1.4c-8.6,1.4-18.7,1.5-21.3,0.3l-8-4.6L423.2,428.3
	L423.2,428.3z M435.7,444.3c5.8,0.9,12.2,0.7,17.5,0.2c1.7,2.6,3.8,4.9,6.3,6.8c-4.6,22.3-18.4,52.3-31.2,76.9c0.7-3.6,1-7.2,1-10.6
	c0-1-0.1-1.9-0.2-2.9c6.5-8.7,8.1-19.5,8.1-28.4c0-4.9-0.5-9.7-1.4-14.5c0.4-1.8,0.6-3.7,0.6-5.5c0-6.6-2-12.9-3.9-17.4
	C433.5,447.7,434.6,446.2,435.7,444.3L435.7,444.3z M418.9,546c-0.6,1.2-1.3,2.3-1.9,3.4c0-0.8,0-1.5,0-2.2
	C417.6,546.7,418.4,546.4,418.9,546z"/>
<path class="st0" d="M411.8,577.6c0,0,52.1-85.2,58.4-131.1c0,0-9.1-3.3-11-12.4c0,0-21.1,3.4-27.7-1c0,0-7.7,12.9-10.1,14.3
	c0,0,8.1,13.9,4.8,24.4c0,0,6.7,25.8-6.7,39.7c0,0,3.3,26.8-12,29.2C407.5,540.8,406.5,562.8,411.8,577.6L411.8,577.6z"/>
<path class="st1" d="M411.3,654.2c0,0,14.8,16.3,32.5,14.4C443.8,668.5,402.7,685.8,411.3,654.2z"/>
<path class="st0" d="M524.2,548c0,0-24.9,63.1-38.3,73.2c0,0-22,4.3-30.6,6.2C455.3,627.4,487.8,603.5,524.2,548L524.2,548z"/>
<path class="st2" d="M438.2,647.6c-6.9,2.7-25.2,0.4-25.4,0.4l-0.7-0.1l-0.3,0.7c-4.3,11-4,18.8,1.1,23c7.8,6.6,25,2,29.5-0.8
	c6.7-4.1,4.8-16.7,4.8-17.2l-0.1-0.4l-8.4-5.8L438.2,647.6z M438.4,649.5l6.9,4.8c0.1,0.6,0.2,2,0.2,3.7c0,3.8-0.7,9-4.1,11.2
	c-4.1,2.5-20.2,6.8-27.3,0.9c-2.3-1.9-3.4-4.7-3.4-8.4c0-3.2,0.9-7.2,2.7-11.7C416.9,650.4,431.6,651.9,438.4,649.5L438.4,649.5z"/>
<path class="st2" d="M453.8,665.9c0,0-4.5,3.5-9.6,1.8l-0.5-0.2l-0.4,0.3c-0.1,0-6.6,4.6-14.3,4.6h-0.8l-0.1,0.8
	c-0.1,0.4-1.5,10.1,4.5,15c4.3,3.5,11.3,3.5,20.7-0.1l0.3-0.1l12-18.1l-3.7-4.3l-0.6,0.1c0,0-4.1,0.9-6.7,0l-0.5-0.2L453.8,665.9
	L453.8,665.9z M454.6,667.6c2.4,0.6,5.3,0.3,6.5,0.1l2,2.4c-0.7,1.1-10.5,15.8-10.9,16.3c-8.6,3.2-14.8,3.3-18.5,0.3
	c-3.4-2.7-4-7.6-4-10.6c0-0.8,0-1.4,0.1-1.9c7.1-0.3,12.9-3.8,14.2-4.7C449.4,671,453.6,668.3,454.6,667.6L454.6,667.6z
	 M465.5,686.3l5.7,8.1l1.6-1.1l-5.7-8.1L465.5,686.3z M467.7,685.4l1.1,1.6l13.4-9.1l-1.1-1.6L467.7,685.4L467.7,685.4z
	 M476.5,675.2l1.6,1l4.3-6.7l-1.6-1L476.5,675.2z"/>
<path class="st2" d="M464,669.1l-1.3,0.7l8.1,6.4h13.7v-1.9h-13.1l-5.3-4.2l10.2-5.5l-0.9-1.7L464,669.1L464,669.1z M599.5,399.6
	l1.5,1.2c0.1-0.1,6.4-8.1,13.7-8c3.5,0,6.8,1.9,9.7,5.6l0.3,0.3l0.4,0c0,0,5.6,0.5,8,3.8c1.1,1.5,1.3,3.3,0.8,5.6l-0.2,0.8l0.8,0.3
	c0,0,2.3,0.9,3,2.9c0.4,1.3,0.1,3-1.1,4.8l-0.6,1l1.1,0.4c0.2,0.1,5.5,2.2,5.1,7.6l-0.1,0.8l0.7,0.2c0.1,0,6.4,1.9,9.5,6.8l1.6-1
	c-2.9-4.6-8-6.7-9.9-7.3c0-4.4-3.1-7.1-5.5-8.3c0.7-1.3,1.1-2.6,1.1-3.7c0-0.6-0.1-1.2-0.3-1.8c-0.7-2.1-2.5-3.2-3.5-3.7
	c0.1-0.6,0.2-1.3,0.2-1.8c0-1.7-0.5-3.2-1.4-4.5c-2.5-3.5-7.5-4.3-9-4.5c-3.2-4-6.9-6.1-10.9-6.1
	C606.4,390.8,599.8,399.2,599.5,399.6L599.5,399.6z"/>
<path class="st2" d="M607.8,419l1.2,1.5c0.5-0.4,13.2-10.8,17-22.4l-1.8-0.6C620.5,408.5,607.9,418.9,607.8,419L607.8,419z
	 M615.5,423.3l1,1.6c1.8-1.1,17.6-11.3,19.1-16.3l-1.8-0.6C632.7,411.7,620.2,420.3,615.5,423.3z M623.1,429.1l1.2,1.5
	c4-3.2,13.2-10.9,13.7-12.9l-1.8-0.5C635.7,418.3,629.2,424.1,623.1,429.1z M628.4,434.8l1.1,1.6l13.9-9.6l-1.1-1.6L628.4,434.8z
	 M365.4,189.8l-162-0.2l-2.6,4.3h146.4C366,193.9,365.4,189.8,365.4,189.8L365.4,189.8z"/>
<path class="st0" d="M360.9,156.1h-14.7l-9.5,17.8h15.8c1.8,0,3.4-0.1,4.7-0.4l2.1-0.4l9.3-17L360.9,156.1L360.9,156.1z"/>
<path class="st1" d="M114.7,129.7h-7.5l-46.6,89.4l62.4-23.5l4.7-9.4h22.7l-6.5,12.3h73.2l-0.1,0.2l77.6-0.6h57.8
	c1.7,0,3.3-0.1,4.9-0.2l-0.3,0.7h49.3l8.7-16.4h2.3l-7.7,16.4h78.6l5.6-11.7c0.5,1.2,1,2.5,1.8,3.6c5.9,8.7,16.8,8.7,20,8.5l-0.3,0
	H547c2.3,0,4.5-0.2,6.6-0.5h88.6l2.6-5.2c6.7,6.2,17.4,6,23.7,5.2h29.8c13.2,0,18.9-5.9,21.2-9.5c1.7-2.3,4.1-6.7,7.3-13.4
	c1-2.1,1.8-4.4,2.2-6.7h1.2l3.6-5.6c3-4.6,4.5-9.1,4.5-13.4c0-2.9-0.7-5.7-2-8.2c-5.1-9.6-16.5-10.5-18.8-10.5l-0.2,0h-34.4
	c-7.6,0-14.8,2.7-20.8,7.7c-5.4-6.8-14.6-7.4-18.4-7.3h0.1h-54.7l-3,5.7c-6-5.2-14.5-5.8-18.5-5.7h-30.3c0-0.1,0.2-0.5,0.2-0.5
	h-80.2c0,0-0.6,1-1,1.6c-3.1-1-6.4-1.4-9.7-1.2c-4-0.1-22.3-0.4-33.3,0c-8.9,0.3-16.1,3.8-21,7.1c-6.2-7.7-17.2-8.1-20.6-8h-50.5
	l-0.2,0.5h-67.6l-2.9,5.5c-5.4-4.6-12.9-5.1-16.3-5h0.1h-54.7l-2,3.8c-6.4-5.3-15.4-5.6-17.4-5.6L114.7,129.7L114.7,129.7z
	 M114.7,138.8h45.1c1,0,10.2,0.2,13.4,5.6l4.5,9.1l4.3-7.6l2.8-5.3h49.4c1.4,0,8.7,0,11.6,4.4c0.2,0.3,0.5,0.9,0.7,1.6l3.3,10.3
	l8.9-16.7h67.6l0.2-0.5h45.1c1.2,0,10.6-0.1,14,5.5c0.3,0.5,0.6,1.1,0.8,1.7l2.2,6.4l5.1-4.4c3.4-2.9,10.5-7.9,19.8-8.2
	c11.2-0.4,30.8-0.1,33,0l0.3,0l0.3,0c1.2-0.1,5.4-0.3,8.5,1.7l4,2.7l2.9-4.8h60.3l-1,2.1l8.7-1.3c1.4-0.2,2.9-0.3,4.4-0.3h32.9
	c1.9,0,10.9,0,14.1,5.4c0.2,0.3,0.4,0.7,0.6,1.3l3.5,9.9l8.7-16.6h49.4c1.4,0,8.7,0,11.5,4.4c0.3,0.5,0.7,1.3,0.9,2.3l1.9,9.2
	l6.1-7.2c5.1-6,11.5-9.2,18.6-9.2h34.3c0.8,0,8.2,0.4,11,5.7c0.6,1.2,1,2.5,1,3.9c0,2.5-1,5.4-3,8.5l-0.9,1.5h-5.5
	c0,0,0.5,5.5,0.5,5.6c0,1.9-0.6,4-1.7,6.3c-3.7,7.8-5.6,10.9-6.5,12.1l-0.1,0.2l-0.1,0.2c-1.2,2-4.6,5.3-13.5,5.3H668l-0.3,0
	c-3.1,0.4-13.4,1.3-17.5-3.6c-0.7-0.8-1.2-1.8-1.4-2.9l-2.9-12.3c0,0-8,16-9.4,18.8h-19.8l5.6-11.7l-15.4-4.6l-9.2,16.3h-29l4.3-8.1
	l-12.5,6c-3.5,1.7-8.1,2.6-13.5,2.6h-31.8l-0.1,0c-2,0.1-8.7,0.2-11.8-4.5c-1-1.5-1.5-3.2-1.4-4.9c0-2.4,0.8-5.1,2.3-8l8.8-16.7
	l-7.5,0h-6.5l-1.3,2.5c0,0-0.1,0.1-15.1,31.2h-29.7l18.6-34l-14.7,0.4l-1.2,2.4c-6.3,11.9-14.1,27.7-14.9,29.5l-0.9,1.8H424
	l7.7-16.4h-22.2l-8.7,16.4h-29l3.3-6.5l-11,4.2c-3.1,1.2-7,1.8-11.6,1.8h-57.8l-62.3,0.5l0,0h-25.3l5.6-11.7l-15.4-4.6l-9.2,16.3
	h-29l6.5-12.3h-43.4l-5.6,11.2l-36.8,13.9l33-63.3L114.7,138.8L114.7,138.8z"/>
<path class="st0" d="M544.8,156.1H542l-9.3,18.2l7.4,0h11l4.3-0.4l0.6-2l0.1-0.1c0,0,2.2-3.8,4.8-9.1l3.3-6.6H544.8z M549.4,165.2
	h-1.8H549.4z"/>
<path class="st2" d="M732.1,143.7c-3.9-7.4-13.1-8-14.9-8.1h-34.4c-8.5,0-16.2,3.8-22.1,10.8c-0.3-1.4-0.8-2.7-1.5-3.9
	c-4-6.2-12.6-6.5-15.5-6.4h-52l-5.1,9.8c-0.3-0.7-0.6-1.5-1-2.1c-4.3-7.3-14.7-7.7-18-7.6h-32.8c-1.7,0-3.5,0.1-5.2,0.3l0.4-0.8
	h-70.2l-1.8,2.9c-4.1-2.8-9.3-2.7-11.4-2.5c-3-0.1-22.1-0.4-33.3,0c-10.8,0.4-18.8,6-22.6,9.3c-0.3-0.9-0.7-1.8-1.2-2.6
	c-4.6-7.5-15.4-7.7-17.9-7.6h-47.9l-0.2,0.5h-67.6l-5.1,9.6c-0.3-0.9-0.7-1.8-1.2-2.7c-4-6.2-12.6-6.5-15.5-6.4h-52l-4.1,7.7
	c-0.2-0.6-0.5-1.1-0.8-1.7c-4.5-7.5-15.2-7.9-17.3-7.9H110l-39.8,76.4l49.6-18.7l5.1-10.3H158l-6.5,12.3h39.2l8.8-15.4l6.8,2
	l-6.4,13.4h24.9l-0.1,0.1l69.9-0.6h57.8c5.7,0,10-0.8,13.3-2.1l-1.3,2.5h39.1l8.7-16.4h12.3l-7.7,16.4h25.7l2.1-4.3
	c0.1-0.2,8.3-17,14.9-29.4l4.1-0.1l-18.5,33.8h40.2l16.3-33.7h3.7c-1.8,3.4-3.6,6.7-5.3,10.1c-2.1,4-2.8,7.3-2.8,10.1
	c0,3.2,1,5.7,2.2,7.4c4.5,6.7,13.3,6.7,15.9,6.5H547c6.9,0,11.8-1.3,15.5-3l-1.4,2.6h39.2l8.8-15.4l6.8,2l-6.4,13.4h29.8
	c0,0,2.4-4.9,5-10c0.5,2.1,1.5,3.7,2.3,4.7c5.3,6.5,16.4,6,21.6,5.3h30c11.1,0,15.6-4.6,17.4-7.5c1.1-1.4,3-4.7,6.9-12.9
	c1.5-3.2,2.1-6,2.1-8.3c0-0.4-0.1-0.7-0.1-1h3l2.3-3.6c2.8-4.3,3.7-8,3.7-11C733.6,147.7,733.1,145.6,732.1,143.7z M102.6,181.8
	l12.5-24l-0.3,2.2l3.3,0.9l-6.7,11l1,0l-3.8,7.7L102.6,181.8L102.6,181.8z M177.2,178.4l9.3-17.6l1.1,7.1h0.1
	c-2.2,3.9-4.7,8.2-6,10.5L177.2,178.4L177.2,178.4z M348.9,160.7h12c-1.7,3.1-3.4,6.3-4.6,8.4c-1.3,0.2-2.6,0.3-3.9,0.3h-8.2
	L348.9,160.7z M336.7,150.6l-7.9,14.7l-4.6,1.7l8.7-16.4L336.7,150.6L336.7,150.6z M255.1,178.3l-4.5,0l7.8-14.6l0.7,4.2h0.6
	L255.1,178.3L255.1,178.3z M389.7,178.4l8.6-17.1l1.1,7h0.1l-5.3,10H389.7L389.7,178.4z M475.7,178.4h-4.4l9.9-18
	c0.7,0.2,1.5,0.5,2.8,1C480.7,168.1,477.8,174.1,475.7,178.4L475.7,178.4z M556.9,160.7c-2.6,5.1-4.7,8.9-4.7,8.9l-0.1,0.1
	c-0.2,0-0.5,0.1-1,0.1h-11c1.6-3,3.1-6.1,4.7-9.1H556.9L556.9,160.7z M514.9,178.9l-0.3,0c-0.5,0-0.9,0-1.4,0
	c0.2-0.4,0.4-0.9,0.7-1.4c2.9-5.6,5.9-11.2,9-16.7l4,1.1c-0.8,1.5-1.6,3.1-2.5,4.7c-1.5,2.9-2.1,5.4-2.1,7.5c0,1.9,0.5,3.5,1.1,4.8
	L514.9,178.9L514.9,178.9L514.9,178.9z M586.8,178.4l9.3-17.6l1.1,7.1h0.1l-6,10.5L586.8,178.4L586.8,178.4z M669.2,161.3
	c0.2-0.4,0.5-0.8,0.7-1.3c0.1,0.7,0.1,0.7,0.3,1.5C669.9,161.4,669.6,161.4,669.2,161.3L669.2,161.3z"/>
<path class="st5" d="M117.5,157.7l-6.4-2l-18,34.6l18.8-7.1l7.9-15.8l-0.3,0l5.7-9.4l-9.1-2.5L117.5,157.7L117.5,157.7z
	 M182.4,158.7L169.6,183h14.7l8-14.2l-0.3-1.6l-3.3-20.5L182.4,158.7L182.4,158.7z M333,146.1h-2.7l-15.7,29.5L332,169l12.3-23H333
	L333,146.1z M254.4,161.6L243,182.9l15-0.1l8.6-19.4H263l-2.2-13.8L254.4,161.6L254.4,161.6z M394.3,159.3l-12,23.7H397l7.3-13.8
	l-0.3-1.5l-3.4-20.8L394.3,159.3z M477.1,158.2L463.6,183h14.9l11.7-24.2l-11.2-4L477.1,158.2z M518.8,158.4c-1.9,3.3-5,9-9.1,16.9
	l-3.7,8.2l6.7-0.1l2.1,0l0.2,0h15.4l-3.1-6.5c-0.4-0.9-0.6-1.8-0.6-2.8c0-1.6,0.5-3.4,1.6-5.4c0,0,5.1-9.7,5.1-9.7l-5.4-1.5
	l-7.4-2.2L518.8,158.4L518.8,158.4z M592,158.7L579.3,183H594l8-14.2l-0.3-1.6l-3.3-20.5L592,158.7L592,158.7z M666,157.7l-0.1,0.2
	l-3.8,6.8l6.2,1l7.7,1.4l-1.3-6.5l-2.4-13.8L666,157.7L666,157.7z M670.5,157.4l2.2,4.7l-5.8-1C668.1,159.8,669.9,157.9,670.5,157.4
	z"/>
<path class="st3" d="M237.7,186.2l22.8-42.8h56l-4.1,6.8h-34.2l-1.4,4.1l-17.8,5.9h46l-4.6,8.7h-32.8l-3.6,8.2h34.2l-3.6,8.7
	L237.7,186.2L237.7,186.2z M305.6,185.7l22.8-42.8h43.3c0,0,16.9-0.5,10.5,11.4c-6.4,11.8-14.1,25.5-14.1,25.5s-0.9,5.9-15.5,5.9
	L305.6,185.7L305.6,185.7z M334.3,171.6l-14.6,5.5h32.8c8.2,0,9.6-2.3,9.6-2.3s7.3-13.2,9.6-17.8c2.3-4.6-1.4-4.1-1.4-4.1h-26
	L334.3,171.6L334.3,171.6z M377.1,186.2l16.9-33.3c0,0,7.7-8.7,19.6-9.1c11.8-0.5,33.3,0,33.3,0s13.7-1.8,6.8,10.9
	c-6.8,12.8-16,31.4-16,31.4H429l7.7-16.4h-29.2l-8.7,16.4L377.1,186.2L377.1,186.2z M414.9,155.6l-15.5,5l42.4-0.5
	c5.9-8.2,0.5-7.3,0.5-7.3h-25.1L414.9,155.6L414.9,155.6z M458.6,152.4l5.5-9.1h53.3l-4.6,9.1h-31l12.8,4.6l-14.1,29.2h-22.3
	l18.7-34.2L458.6,152.4L458.6,152.4z M534.7,143.8h32.8c0,0,16.9-0.5,10.5,10.5c-6.4,10.9-13.7,25.1-13.7,25.1s-1.8,7.3-17.3,7.3
	h-31.9c0,0-15.5,1.4-8.2-12.8c7.3-14.1,11.4-21,11.4-21S522.4,143.3,534.7,143.8L534.7,143.8z M537.9,157c0,0-3.2,6.4-6.8,13.2
	c-3.6,6.8,2.3,7.3,2.3,7.3h17.8c6.4,0,7.7-4.1,7.7-4.1s3.6-6.4,7.3-14.1c3.6-7.7-2.7-6.4-2.7-6.4h-39.6L537.9,157z M164.3,186.2
	l22.3-42.4H234c0,0,12.8-0.5,8.7,7.7c-2.9,5.8-6,11.6-9.1,17.3h-15.9l13.7,4.6l-6.4,12.8h-12.8l5-10.5l-21.4-6.4l-9.6,16.9
	L164.3,186.2L164.3,186.2L164.3,186.2z M230.8,160.2c5-8.2-1.4-7.7-1.4-7.7h-25.1l-1.8,2.7l-15,5L230.8,160.2L230.8,160.2z
	 M86.4,196.2l28.3-54.2h45.1c0,0,15.9,0,10,10.9c-3.7,6.9-7.2,13.9-10.5,21h-39.2l-5.9,11.8L86.4,196.2z M154.3,164.8
	c0,0,1.8-1.8,4.6-7.3c2.7-5.5-1.4-5-1.4-5h-40.5l13.2,3.6l-5,8.2L154.3,164.8L154.3,164.8z M574,186.2l22.3-42.4h47.4
	c0,0,12.8-0.5,8.7,7.7s-9.1,17.3-9.1,17.3h-15.9l13.7,4.6l-6.4,12.8h-12.7l5-10.5l-21.4-6.4l-9.6,16.9L574,186.2L574,186.2
	L574,186.2z M640.5,160.2c5-8.2-1.4-7.7-1.4-7.7h-25.1l-1.8,2.7l-15,5L640.5,160.2L640.5,160.2z M682.8,143.3H717
	c0,0,14.6,0.5,6.4,13.2h-8.7l0.5-3.6h-27.3l-2.3,2.7l-14.1,5h38.7c0,0,10.5-0.9,5.5,9.6c-5,10.5-6.4,11.8-6.4,11.8
	s-1.4,4.1-10.9,4.1h-30.5c0,0-19.1,2.7-15.5-7.3c3.6-10,2.7-6.8,2.7-6.8h21.9c0,0-2.7,5.5,3.2,5.5h21.4c0,0,1.8,1.4,4.6-2.7
	c2.7-4.1,2.3-5.5-1.8-5.5H671c0,0-13.7-0.5-9.6-9.6C665.5,150.6,672.8,143.3,682.8,143.3L682.8,143.3z"/>
<path class="st2" d="M283.5,117.4l11.2-22.9c0,0,5.1-6,13-6.3c7.9-0.3,22,0,22,0s9.1-1.3,4.5,7.5c-4.5,8.8-10.6,21.6-10.6,21.6h-5.7
	l5.1-11.3h-19.3l-5.7,11.3H283.5L283.5,117.4z M306.7,99.5h19.6c3.9-5.6,0.3-5,0.3-5H310L306.7,99.5z M356.1,88h22.6
	c0,0,9.6,0.3,4.2,9.1h-5.7l0.3-2.5h-18.1l-3.3,5.3l18.1,0c0,0,6.9-0.6,3.6,6.6c-3.3,7.2-4.2,8.1-4.2,8.1s-0.9,2.8-7.2,2.8h-20.2
	c0,0-12.7,1.9-10.2-5c2.4-6.9,1.8-4.7,1.8-4.7h14.5c0,0-1.8,3.8,2.1,3.8h14.1c0,0,1.2,0.9,3-1.9c1.8-2.8,1.5-3.8-1.2-3.8h-22
	c0,0-9-0.3-6.3-6.6C344.7,93,349.5,88,356.1,88z M243.6,89.1h19.6l8.7,20l10.9-20h5.9l-15.5,27.8h-11.4l-7.7-20.1l-11.4,20.5h-14.6
	L243.6,89.1L243.6,89.1z M397.1,88.7h14.1l-5.5,10.9h18.7l5.9-10.5h5.9l-15.5,28.7h-5.9l5.9-11.4h-18.7l-6.4,11.4h-14.1
	C381.6,117.8,397.1,88.7,397.1,88.7z M442.2,89.1h13.2l-3.6,22.3l22.8-22.3h8.7l-29.6,28.7h-16.4L442.2,89.1L442.2,89.1z
	 M489.2,89.1H501l-15.5,28.2h-11.8L489.2,89.1L489.2,89.1z M509.2,88.7h12.3l-11.8,23.7h16.9l-3.2,5.5h-29.2
	C494.2,117.8,509.2,88.7,509.2,88.7z M542.9,88.7h12.3l-11.8,23.7h16.9l-3.2,5.5h-29.2C527.9,117.8,542.9,88.7,542.9,88.7z
	 M563,117.8l15-28.7h36l-2.3,5h-22.3l-3.2,5.9h20.5l-2.7,6.8h-21.4l-2.7,5h21.9l-1.8,6.4L563,117.8L563,117.8z"/>
</svg>
