<?xml version="1.0" encoding="utf-8"?>
<!-- Generator: Adobe Illustrator 24.0.1, SVG Export Plug-In . SVG Version: 6.00 Build 0)  -->
<svg version="1.1" id="Layer_1" xmlns="http://www.w3.org/2000/svg" xmlns:xlink="http://www.w3.org/1999/xlink" x="0px" y="0px"
	 viewBox="0 0 800 800" style="enable-background:new 0 0 800 800;" xml:space="preserve">
<style type="text/css">
	.st0{fill-rule:evenodd;clip-rule:evenodd;fill:#E0912F;}
	.st1{fill-rule:evenodd;clip-rule:evenodd;fill:#2360A5;}
</style>
<path class="st0" d="M399.5,197.3c14.4,0,26,10.9,26,25.2c0,14.4-11.7,25.9-26,25.9c-13.4,0-25-11.6-25-25.9
	C374.5,208.2,386.1,197.3,399.5,197.3z"/>
<path class="st1" d="M430.8,283.5c2.2,0,4.1,1.9,4.1,4.1c0,2.2-1.8,4.1-4.1,4.1h-61.4c-2.2,0-4.1-1.9-4.1-4.1c0-2.2,1.9-4.1,4.1-4.1
	H430.8z M400,255.8c18.1,0,36.4,2.8,50.1,7.4c18.2,6.2,29.8,15.7,29.8,26.1c0,11.5-14.2,22.1-34.6,27.7c-20.4,5.6-35.5,6.7-53.5,5.8
	c-16.7-0.7-33.3-3.4-48.5-9.9v101.9c-13.6-9-23.2-20.9-23.2-37.6v-82.4c0-20.4,18.7-28.3,33.6-32.8
	C368.7,257.6,381.9,255.8,400,255.8L400,255.8z M453.5,395.9v-53.7c0-5.2-8.1-3.8-8.1,2.5v54.5C445.5,403.9,453.5,402.9,453.5,395.9
	z M420,415.9v-77.1c0-5.4,2.9-9.2,8.2-9.9c7.3-1,14.5-2.5,21.5-4.5c7-2,13.7-4.7,20.2-8c3.2-1.8,6.9-0.5,6.9,3.7v55.8
	c0,7.3-0.1,15.1-3.4,21.9c-3.3,6.9-9.2,12.3-15.8,16.7c-7.4,4.9-16.9,8.7-25.3,10.8C424.4,427,420,423.1,420,415.9L420,415.9z
	 M411.9,339.5v27.1c0,6.8-6.4,11.1-11.8,11.5v0.1c5.3,0.7,11.8,4.5,11.8,11.7V416c0,4.8,0,8.2,2,11.7c-4.8,0.6-9.4,0.7-13.8,0.7
	c-4.4,0-8.9-0.2-13.2-0.7c-2.1-4.3-1.9-7.3-1.9-11.9V395c0-5.6-2.4-10.1-8.2-10.5v42.1c-4.5-0.7-9-1.7-13.3-3.1
	c-4.2-1.3-8.2-2.8-12.1-4.7v-94.2c4.2,1.3,8.3,2.2,12.6,3.1c4.3,0.7,8.6,1.3,12.9,1.9v42c5.4,1.1,8.2-2.5,8.2-7.9v-24.6
	c0-2.8,0.1-6.3,1.8-8.7c4.4,0.3,8.4,0.4,12.9,0.4c4.5,0.1,9.3-0.1,14-0.3C412.2,333.4,411.9,335.9,411.9,339.5L411.9,339.5z
	 M739.8,540.5l-22.3-28.3l21.7-27.1h-18.5L703.1,508v-22.9H687v55.4h16.1v-22.6l17.5,22.6H739.8L739.8,540.5z M452.3,540.5
	L430,512.1l21.7-27.1h-18.5L415.7,508v-22.9h-16.2v55.4h16.2v-22.6l17.4,22.6H452.3z M141.1,540.5l-22.3-28.3l21.7-27.1h-18.5
	L104.4,508v-22.9H88.3v55.4h16.1v-22.6l17.5,22.6H141.1z M764.7,540.5v-55.4h-16.6v55.4H764.7z M677.7,523.3c0-5.9-2.3-9.6-7.5-13
	c-2.4-1.5-6.5-2.6-12.1-4.1c-8-2-12-3.1-12-6c0-2.5,2.2-4.2,6.5-4.2c4.9,0,7.1,1.8,7.2,6.1h16.1c-0.3-11.3-8.4-18.1-23-18.1
	c-14.8,0-23.3,6.7-23.3,17.2c0,8.8,5.7,14.1,18.1,17.3c8.8,2.3,13.5,3.1,13.5,6.7c0,2.9-2.7,4.6-7.6,4.6c-5.2,0-7.7-2.6-7.7-7.9
	v-0.2h-16.9c0.5,13.8,8.7,20.4,24.9,20.4C669.2,542.2,677.7,535.1,677.7,523.3L677.7,523.3z M626.3,540.5v-14.1h-18.4v-41.3h-16.4
	v55.4H626.3z M385.4,540.5v-55.4h-15.6v30.6l-15.5-30.6h-16.6v55.4h15.6v-29.9l15.7,29.9H385.4z M567.1,513c0,10-4.3,15.8-10,15.8
	c-6.6,0-10.6-5.5-10.6-15.5c0-10,4.2-15.8,9.9-15.8C563,497.5,567.1,503,567.1,513L567.1,513z M584,513.4c0-9-2.9-16.3-8.2-21.7
	c-5-5-11.7-7.7-19.4-7.7c-7.8,0-14.4,2.8-19.1,7.9c-5.2,5.7-7.6,12.5-7.6,21c0,8.9,2.8,16,8.3,21.6c4.9,5,11.4,7.7,19.1,7.7
	c7.9,0,14.5-2.8,19.2-8.1C581.4,528.7,584,521.8,584,513.4L584,513.4z M508.8,504.4c0,4-2.2,6.2-6.5,6.2h-6.8v-12.7h6.6
	C506.5,497.9,508.8,500.1,508.8,504.4L508.8,504.4z M525.2,505c0-12.7-7.9-19.9-22.6-19.9h-23.3v55.4h16.4v-17h10.8
	C517.5,523.4,525.2,515.8,525.2,505z M253.8,522.4c0,3.6-2.3,5.3-6.9,5.3h-9.4v-10.5h9.3C251.5,517.2,253.8,518.8,253.8,522.4
	L253.8,522.4z M252,502.1c0,3.3-2.1,4.5-6.6,4.5h-7.9v-9h7.8C249.8,497.7,252,498.9,252,502.1z M270.4,523.4c0-6.4-3.3-11-9-13.3
	c4.4-2.3,6.6-5.9,6.6-10.7c0-5.3-2.5-9.4-7.7-12.3c-2.2-1.3-6.1-1.9-11.8-1.9h-27.2v55.4H247c8.8,0,14.8-0.8,19.4-5.9
	C269,531.5,270.4,527.7,270.4,523.4L270.4,523.4z M307.9,521.6h-10.8l5.5-19.3L307.9,521.6z M330.2,540.5l-18.9-55.4h-17.4
	l-18.9,55.4h16.9l2-7.3h17.1l2,7.3H330.2L330.2,540.5z M177.6,513c0,10-4.3,15.8-10,15.8c-6.6,0-10.7-5.5-10.7-15.5
	c0-10,4.3-15.8,10-15.8C173.5,497.5,177.6,503,177.6,513z M194.4,513.4c0-9-2.9-16.3-8.3-21.7c-4.9-5-11.6-7.7-19.3-7.7
	c-7.8,0-14.4,2.8-19.1,7.9c-5.2,5.7-7.6,12.5-7.6,21c0,8.9,2.8,16,8.2,21.6c5,5,11.5,7.7,19.2,7.7c7.9,0,14.5-2.8,19.2-8.1
	C191.8,528.7,194.4,521.8,194.4,513.4L194.4,513.4z M64.9,504.4c0,4-2.2,6.2-6.6,6.2h-6.8v-12.7h6.5
	C62.6,497.9,64.9,500.1,64.9,504.4L64.9,504.4z M81.3,505c0-12.7-7.9-19.9-22.6-19.9H35.3v55.4h16.5v-17h10.8
	C73.6,523.4,81.3,515.8,81.3,505L81.3,505z"/>
</svg>
